<svg width="19" height="27" viewBox="0 0 19 27" fill="none" xmlns="http://www.w3.org/2000/svg">
<path d="M9.5 12.825C8.60016 12.825 7.73717 12.4694 7.10089 11.8365C6.4646 11.2036 6.10714 10.3451 6.10714 9.45C6.10714 8.55489 6.4646 7.69645 7.10089 7.06351C7.73717 6.43058 8.60016 6.075 9.5 6.075C10.3998 6.075 11.2628 6.43058 11.8991 7.06351C12.5354 7.69645 12.8929 8.55489 12.8929 9.45C12.8929 9.89321 12.8051 10.3321 12.6346 10.7416C12.4641 11.151 12.2142 11.5231 11.8991 11.8365C11.5841 12.1499 11.21 12.3985 10.7984 12.5681C10.3868 12.7377 9.94556 12.825 9.5 12.825ZM9.5 0C6.98044 0 4.56408 0.995622 2.78249 2.76784C1.00089 4.54006 0 6.9437 0 9.45C0 16.5375 9.5 27 9.5 27C9.5 27 19 16.5375 19 9.45C19 6.9437 17.9991 4.54006 16.2175 2.76784C14.4359 0.995622 12.0196 0 9.5 0Z" fill="white"/>
</svg>
