<svg width="20" height="20" viewBox="0 0 20 20" fill="none" xmlns="http://www.w3.org/2000/svg">
<path d="M18.8333 20C16.4444 20 14.1159 19.4674 11.8478 18.4022C9.57963 17.337 7.57037 15.9296 5.82 14.18C4.06963 12.4304 2.66222 10.4211 1.59778 8.15222C0.533334 5.88333 0.000740741 3.55482 0 1.16667C0 0.833334 0.111111 0.555556 0.333333 0.333333C0.555556 0.111111 0.833334 0 1.16667 0H5.66667C5.92593 0 6.15741 0.0833332 6.36111 0.25C6.56482 0.416667 6.68519 0.62963 6.72222 0.888889L7.44444 4.77778C7.48148 5.03704 7.47667 5.27333 7.43 5.48667C7.38333 5.7 7.27704 5.88963 7.11111 6.05556L4.44444 8.77778C5.22222 10.1111 6.19444 11.3611 7.36111 12.5278C8.52778 13.6944 9.81482 14.7037 11.2222 15.5556L13.8333 12.9444C14 12.7778 14.2178 12.653 14.4867 12.57C14.7556 12.487 15.0193 12.4637 15.2778 12.5L19.1111 13.2778C19.3704 13.3333 19.5833 13.4585 19.75 13.6533C19.9167 13.8481 20 14.0748 20 14.3333V18.8333C20 19.1667 19.8889 19.4444 19.6667 19.6667C19.4444 19.8889 19.1667 20 18.8333 20Z" fill="white"/>
</svg>
