<svg width="45" height="51" viewBox="0 0 45 51" fill="none" xmlns="http://www.w3.org/2000/svg">
<path d="M22.5 0C28.4674 0 34.1903 2.37053 38.4099 6.5901C42.6295 10.8097 45 16.5326 45 22.5C45 30.185 40.81 36.475 36.395 40.9875C34.1892 43.2177 31.7823 45.2396 29.205 47.0275L28.14 47.7525L27.64 48.085L26.6975 48.685L25.8575 49.1975L24.8175 49.8025C24.1116 50.2054 23.3128 50.4174 22.5 50.4174C21.6872 50.4174 20.8884 50.2054 20.1825 49.8025L19.1425 49.1975L17.8425 48.3975L17.3625 48.085L16.3375 47.4025C13.5571 45.5213 10.9673 43.3727 8.605 40.9875C4.19 36.4725 0 30.185 0 22.5C0 16.5326 2.37053 10.8097 6.5901 6.5901C10.8097 2.37053 16.5326 0 22.5 0ZM22.5 15C21.5151 15 20.5398 15.194 19.6299 15.5709C18.7199 15.9478 17.8931 16.5003 17.1967 17.1967C16.5003 17.8931 15.9478 18.7199 15.5709 19.6299C15.194 20.5398 15 21.5151 15 22.5C15 23.4849 15.194 24.4602 15.5709 25.3701C15.9478 26.2801 16.5003 27.1069 17.1967 27.8033C17.8931 28.4997 18.7199 29.0522 19.6299 29.4291C20.5398 29.806 21.5151 30 22.5 30C24.4891 30 26.3968 29.2098 27.8033 27.8033C29.2098 26.3968 30 24.4891 30 22.5C30 20.5109 29.2098 18.6032 27.8033 17.1967C26.3968 15.7902 24.4891 15 22.5 15Z" fill="#51367E"/>
</svg>
