<svg width="350" height="300" viewBox="0 0 350 300" fill="none" xmlns="http://www.w3.org/2000/svg">
<path d="M175.3 299.877C138.838 299.877 102.375 299.869 65.9133 299.877C47.85 299.877 33.9391 287.234 33.1006 269.845C31.9986 246.987 34.538 224.736 44.8713 203.729C59.2294 174.55 82.3476 154.372 113.204 142.168C115.927 141.092 116.574 139.848 116.526 137.083C116.31 124.394 115.911 111.675 116.606 99.0094C117.364 85.1072 129.574 74.9072 144.1 74.8995C164.934 74.8918 185.769 74.8841 206.603 74.8995C221.672 74.9072 234.057 86.774 234.081 101.221C234.097 113.826 234.041 126.43 234.129 139.034C234.129 139.863 234.912 141.146 235.671 141.453C266.822 154.15 290.348 174.465 304.841 204.205C313.234 221.433 316.668 239.521 316.604 258.354C316.588 263.992 316.772 269.737 315.742 275.237C313.202 288.801 301.248 298.771 286.986 299.662C281.611 299.999 276.189 299.708 270.791 299.708C238.961 299.708 207.122 299.708 175.292 299.708V299.861L175.3 299.877ZM175.188 252.256C205.222 252.133 228.899 229.567 228.891 201.133C228.891 175.164 206.691 150.332 175.946 150.547C142.511 150.785 122.89 176.708 123.042 201.947C123.202 229.206 147.246 252.371 175.188 252.256Z" fill="url(#paint0_linear_518_3937)" fill-opacity="0.06"/>
<path d="M175.635 52.8518C150.74 53.0975 132.258 54.802 114.407 60.2536C109.094 61.8737 103.862 64.4075 99.283 67.4712C90.5566 73.3066 88.2035 80.7238 91.0512 90.5981C92.3593 95.1359 94.0583 99.574 95.3984 104.104C98.3816 114.178 95.9169 121.426 86.2333 126.095C73.7979 132.091 60.8359 137.09 48.0335 142.365C42.6494 144.584 37.1376 146.557 31.5859 148.354C28.7861 149.26 25.7869 149.751 22.8436 150.02C15.7285 150.673 10.9664 146.995 7.44878 141.559C3.07762 134.81 1.33075 127.223 0.45333 119.438C-1.7482 99.812 4.25018 82.1674 14.508 65.4979C26.4569 46.0872 43.9655 32.8345 64.5929 22.8221C83.8723 13.47 104.444 8.22571 125.518 4.54014C149.32 0.370844 173.329 -0.98053 197.459 0.708688C227.123 2.78182 255.999 8.4407 283.239 20.2268C299.583 27.2985 314.65 36.3358 326.591 49.5885C341.372 65.9893 348.934 85.039 349.604 106.638C349.867 115.238 350.242 123.914 347.897 132.337C347.011 135.516 345.751 138.702 344.028 141.536C340.016 148.139 333.65 150.78 326.049 148.592C319.261 146.634 312.696 143.924 306.083 141.42C293.911 136.814 281.787 132.114 269.631 127.461C257.729 122.908 253.239 116.42 258.376 101.916C259.987 97.3703 262.236 93.0321 263.792 88.4789C267.03 78.9655 264.198 71.4485 255.576 65.805C248.556 61.2057 240.436 59.4935 232.34 57.9194C211.577 53.873 190.519 53.013 175.643 52.8518H175.635Z" fill="url(#paint1_linear_518_3937)" fill-opacity="0.06"/>
<path d="M175.519 241.584C152.317 241.108 133.833 222.991 134.065 201.392C134.296 180 152.476 161.23 175.759 161.376C199.648 161.53 218.251 180.023 217.676 202.545C217.125 223.983 197.635 242.038 175.519 241.584Z" fill="url(#paint2_linear_518_3937)" fill-opacity="0.06"/>
<defs>
<linearGradient id="paint0_linear_518_3937" x1="174.735" y1="74.8906" x2="174.735" y2="299.877" gradientUnits="userSpaceOnUse">
<stop stop-color="#755C9E"/>
<stop offset="1" stop-color="#2A2138" stop-opacity="0"/>
</linearGradient>
<linearGradient id="paint1_linear_518_3937" x1="174.9" y1="0" x2="174.9" y2="150.095" gradientUnits="userSpaceOnUse">
<stop stop-color="#755C9E"/>
<stop offset="1" stop-color="#2A2138" stop-opacity="0"/>
</linearGradient>
<linearGradient id="paint2_linear_518_3937" x1="175.876" y1="161.375" x2="175.876" y2="241.593" gradientUnits="userSpaceOnUse">
<stop stop-color="#755C9E"/>
<stop offset="1" stop-color="#2A2138" stop-opacity="0"/>
</linearGradient>
</defs>
</svg>
