<svg width="328" height="313" viewBox="0 0 328 313" fill="none" xmlns="http://www.w3.org/2000/svg">
<g clip-path="url(#clip0_2050_1773)">
<rect width="328" height="313" fill="#F2F2F2"/>
<g clip-path="url(#clip1_2050_1773)">
<rect width="328" height="313" rx="60" fill="white" fill-opacity="0.1"/>
<rect x="30.5" y="-25.5" width="89.6016" height="39" rx="5.5" stroke="#A18BC4"/>
<path d="M40 -12.3225H60.6316V0.322651H40V-12.3225Z" fill="#5C9E31"/>
<rect x="131.102" y="-25.5" width="166.398" height="39" rx="5.5" stroke="#A18BC4"/>
<path d="M36.732 36.144C36.732 36.568 36.632 36.968 36.432 37.344C36.232 37.72 35.912 38.028 35.472 38.268C35.032 38.5 34.468 38.616 33.78 38.616H32.268V42H30.9V33.66H33.78C34.42 33.66 34.96 33.772 35.4 33.996C35.848 34.212 36.18 34.508 36.396 34.884C36.62 35.26 36.732 35.68 36.732 36.144ZM33.78 37.5C34.3 37.5 34.688 37.384 34.944 37.152C35.2 36.912 35.328 36.576 35.328 36.144C35.328 35.232 34.812 34.776 33.78 34.776H32.268V37.5H33.78ZM37.5807 38.664C37.5807 38 37.7167 37.412 37.9887 36.9C38.2687 36.388 38.6447 35.992 39.1167 35.712C39.5967 35.424 40.1247 35.28 40.7007 35.28C41.2207 35.28 41.6727 35.384 42.0567 35.592C42.4487 35.792 42.7607 36.044 42.9927 36.348V35.388H44.3727V42H42.9927V41.016C42.7607 41.328 42.4447 41.588 42.0447 41.796C41.6447 42.004 41.1887 42.108 40.6767 42.108C40.1087 42.108 39.5887 41.964 39.1167 41.676C38.6447 41.38 38.2687 40.972 37.9887 40.452C37.7167 39.924 37.5807 39.328 37.5807 38.664ZM42.9927 38.688C42.9927 38.232 42.8967 37.836 42.7047 37.5C42.5207 37.164 42.2767 36.908 41.9727 36.732C41.6687 36.556 41.3407 36.468 40.9887 36.468C40.6367 36.468 40.3087 36.556 40.0047 36.732C39.7007 36.9 39.4527 37.152 39.2607 37.488C39.0767 37.816 38.9847 38.208 38.9847 38.664C38.9847 39.12 39.0767 39.52 39.2607 39.864C39.4527 40.208 39.7007 40.472 40.0047 40.656C40.3167 40.832 40.6447 40.92 40.9887 40.92C41.3407 40.92 41.6687 40.832 41.9727 40.656C42.2767 40.48 42.5207 40.224 42.7047 39.888C42.8967 39.544 42.9927 39.144 42.9927 38.688ZM48.5695 42.108C48.0495 42.108 47.5815 42.016 47.1655 41.832C46.7575 41.64 46.4335 41.384 46.1935 41.064C45.9535 40.736 45.8255 40.372 45.8095 39.972H47.2255C47.2495 40.252 47.3815 40.488 47.6215 40.68C47.8695 40.864 48.1775 40.956 48.5455 40.956C48.9295 40.956 49.2255 40.884 49.4335 40.74C49.6495 40.588 49.7575 40.396 49.7575 40.164C49.7575 39.916 49.6375 39.732 49.3975 39.612C49.1655 39.492 48.7935 39.36 48.2815 39.216C47.7855 39.08 47.3815 38.948 47.0695 38.82C46.7575 38.692 46.4855 38.496 46.2535 38.232C46.0295 37.968 45.9175 37.62 45.9175 37.188C45.9175 36.836 46.0215 36.516 46.2295 36.228C46.4375 35.932 46.7335 35.7 47.1175 35.532C47.5095 35.364 47.9575 35.28 48.4615 35.28C49.2135 35.28 49.8175 35.472 50.2735 35.856C50.7375 36.232 50.9855 36.748 51.0175 37.404H49.6495C49.6255 37.108 49.5055 36.872 49.2895 36.696C49.0735 36.52 48.7815 36.432 48.4135 36.432C48.0535 36.432 47.7775 36.5 47.5855 36.636C47.3935 36.772 47.2975 36.952 47.2975 37.176C47.2975 37.352 47.3615 37.5 47.4895 37.62C47.6175 37.74 47.7735 37.836 47.9575 37.908C48.1415 37.972 48.4135 38.056 48.7735 38.16C49.2535 38.288 49.6455 38.42 49.9495 38.556C50.2615 38.684 50.5295 38.876 50.7535 39.132C50.9775 39.388 51.0935 39.728 51.1015 40.152C51.1015 40.528 50.9975 40.864 50.7895 41.16C50.5815 41.456 50.2855 41.688 49.9015 41.856C49.5255 42.024 49.0815 42.108 48.5695 42.108ZM54.9797 42.108C54.4597 42.108 53.9917 42.016 53.5757 41.832C53.1677 41.64 52.8437 41.384 52.6037 41.064C52.3637 40.736 52.2357 40.372 52.2197 39.972H53.6357C53.6597 40.252 53.7917 40.488 54.0317 40.68C54.2797 40.864 54.5877 40.956 54.9557 40.956C55.3397 40.956 55.6357 40.884 55.8437 40.74C56.0597 40.588 56.1677 40.396 56.1677 40.164C56.1677 39.916 56.0477 39.732 55.8077 39.612C55.5757 39.492 55.2037 39.36 54.6917 39.216C54.1957 39.08 53.7917 38.948 53.4797 38.82C53.1677 38.692 52.8957 38.496 52.6637 38.232C52.4397 37.968 52.3277 37.62 52.3277 37.188C52.3277 36.836 52.4317 36.516 52.6397 36.228C52.8477 35.932 53.1437 35.7 53.5277 35.532C53.9197 35.364 54.3677 35.28 54.8717 35.28C55.6237 35.28 56.2277 35.472 56.6837 35.856C57.1477 36.232 57.3957 36.748 57.4277 37.404H56.0597C56.0357 37.108 55.9157 36.872 55.6997 36.696C55.4837 36.52 55.1917 36.432 54.8237 36.432C54.4637 36.432 54.1877 36.5 53.9957 36.636C53.8037 36.772 53.7077 36.952 53.7077 37.176C53.7077 37.352 53.7717 37.5 53.8997 37.62C54.0277 37.74 54.1837 37.836 54.3677 37.908C54.5517 37.972 54.8237 38.056 55.1837 38.16C55.6637 38.288 56.0557 38.42 56.3597 38.556C56.6717 38.684 56.9397 38.876 57.1637 39.132C57.3877 39.388 57.5037 39.728 57.5117 40.152C57.5117 40.528 57.4077 40.864 57.1997 41.16C56.9917 41.456 56.6957 41.688 56.3117 41.856C55.9357 42.024 55.4917 42.108 54.9797 42.108ZM67.8698 35.388L65.8178 42H64.3778L63.0458 37.116L61.7138 42H60.2738L58.2098 35.388H59.6018L60.9818 40.704L62.3858 35.388H63.8138L65.1578 40.68L66.5258 35.388H67.8698ZM71.7602 42.108C71.1362 42.108 70.5722 41.968 70.0682 41.688C69.5642 41.4 69.1682 41 68.8802 40.488C68.5922 39.968 68.4482 39.368 68.4482 38.688C68.4482 38.016 68.5962 37.42 68.8922 36.9C69.1882 36.38 69.5922 35.98 70.1042 35.7C70.6162 35.42 71.1882 35.28 71.8202 35.28C72.4522 35.28 73.0242 35.42 73.5362 35.7C74.0482 35.98 74.4522 36.38 74.7482 36.9C75.0442 37.42 75.1922 38.016 75.1922 38.688C75.1922 39.36 75.0402 39.956 74.7362 40.476C74.4322 40.996 74.0162 41.4 73.4882 41.688C72.9682 41.968 72.3922 42.108 71.7602 42.108ZM71.7602 40.92C72.1122 40.92 72.4402 40.836 72.7442 40.668C73.0562 40.5 73.3082 40.248 73.5002 39.912C73.6922 39.576 73.7882 39.168 73.7882 38.688C73.7882 38.208 73.6962 37.804 73.5122 37.476C73.3282 37.14 73.0842 36.888 72.7802 36.72C72.4762 36.552 72.1482 36.468 71.7962 36.468C71.4442 36.468 71.1162 36.552 70.8122 36.72C70.5162 36.888 70.2802 37.14 70.1042 37.476C69.9282 37.804 69.8402 38.208 69.8402 38.688C69.8402 39.4 70.0202 39.952 70.3802 40.344C70.7482 40.728 71.2082 40.92 71.7602 40.92ZM77.9125 36.348C78.1125 36.012 78.3765 35.752 78.7045 35.568C79.0405 35.376 79.4365 35.28 79.8925 35.28V36.696H79.5445C79.0085 36.696 78.6005 36.832 78.3205 37.104C78.0485 37.376 77.9125 37.848 77.9125 38.52V42H76.5445V35.388H77.9125V36.348ZM80.694 38.664C80.694 38 80.83 37.412 81.102 36.9C81.382 36.388 81.758 35.992 82.23 35.712C82.71 35.424 83.242 35.28 83.826 35.28C84.258 35.28 84.682 35.376 85.098 35.568C85.522 35.752 85.858 36 86.106 36.312V33.12H87.486V42H86.106V41.004C85.882 41.324 85.57 41.588 85.17 41.796C84.778 42.004 84.326 42.108 83.814 42.108C83.238 42.108 82.71 41.964 82.23 41.676C81.758 41.38 81.382 40.972 81.102 40.452C80.83 39.924 80.694 39.328 80.694 38.664ZM86.106 38.688C86.106 38.232 86.01 37.836 85.818 37.5C85.634 37.164 85.39 36.908 85.086 36.732C84.782 36.556 84.454 36.468 84.102 36.468C83.75 36.468 83.422 36.556 83.118 36.732C82.814 36.9 82.566 37.152 82.374 37.488C82.19 37.816 82.098 38.208 82.098 38.664C82.098 39.12 82.19 39.52 82.374 39.864C82.566 40.208 82.814 40.472 83.118 40.656C83.43 40.832 83.758 40.92 84.102 40.92C84.454 40.92 84.782 40.832 85.086 40.656C85.39 40.48 85.634 40.224 85.818 39.888C86.01 39.544 86.106 39.144 86.106 38.688Z" fill="#2F2F2F"/>
<rect x="30.5" y="52.5" width="267" height="39" rx="5.5" stroke="#A18BC4"/>
<path d="M42.016 68.524V71.32H45.064V72.22H42.016V75.1H45.424V76H40.924V67.624H45.424V68.524H42.016ZM50.2803 69.304C51.0803 69.304 51.7283 69.548 52.2243 70.036C52.7203 70.516 52.9683 71.212 52.9683 72.124V76H51.8883V72.28C51.8883 71.624 51.7243 71.124 51.3963 70.78C51.0683 70.428 50.6203 70.252 50.0523 70.252C49.4763 70.252 49.0163 70.432 48.6723 70.792C48.3363 71.152 48.1683 71.676 48.1683 72.364V76H47.0763V69.424H48.1683V70.36C48.3843 70.024 48.6763 69.764 49.0443 69.58C49.4203 69.396 49.8323 69.304 50.2803 69.304ZM56.0841 70.324V74.2C56.0841 74.52 56.1521 74.748 56.2881 74.884C56.4241 75.012 56.6601 75.076 56.9961 75.076H57.8001V76H56.8161C56.2081 76 55.7521 75.86 55.4481 75.58C55.1441 75.3 54.9921 74.84 54.9921 74.2V70.324H54.1401V69.424H54.9921V67.768H56.0841V69.424H57.8001V70.324H56.0841ZM65.1232 72.46C65.1232 72.668 65.1112 72.888 65.0872 73.12H59.8312C59.8712 73.768 60.0912 74.276 60.4912 74.644C60.8992 75.004 61.3912 75.184 61.9672 75.184C62.4392 75.184 62.8312 75.076 63.1432 74.86C63.4632 74.636 63.6872 74.34 63.8152 73.972H64.9912C64.8152 74.604 64.4632 75.12 63.9352 75.52C63.4072 75.912 62.7512 76.108 61.9672 76.108C61.3432 76.108 60.7832 75.968 60.2872 75.688C59.7992 75.408 59.4152 75.012 59.1352 74.5C58.8552 73.98 58.7152 73.38 58.7152 72.7C58.7152 72.02 58.8512 71.424 59.1232 70.912C59.3952 70.4 59.7752 70.008 60.2632 69.736C60.7592 69.456 61.3272 69.316 61.9672 69.316C62.5912 69.316 63.1432 69.452 63.6232 69.724C64.1032 69.996 64.4712 70.372 64.7272 70.852C64.9912 71.324 65.1232 71.86 65.1232 72.46ZM63.9952 72.232C63.9952 71.816 63.9032 71.46 63.7192 71.164C63.5352 70.86 63.2832 70.632 62.9632 70.48C62.6512 70.32 62.3032 70.24 61.9192 70.24C61.3672 70.24 60.8952 70.416 60.5032 70.768C60.1192 71.12 59.8992 71.608 59.8432 72.232H63.9952ZM67.6566 70.492C67.8486 70.116 68.1206 69.824 68.4726 69.616C68.8326 69.408 69.2686 69.304 69.7806 69.304V70.432H69.4926C68.2686 70.432 67.6566 71.096 67.6566 72.424V76H66.5646V69.424H67.6566V70.492ZM75.3324 70.636C75.5484 70.26 75.8684 69.948 76.2924 69.7C76.7244 69.444 77.2244 69.316 77.7924 69.316C78.3764 69.316 78.9044 69.456 79.3764 69.736C79.8564 70.016 80.2324 70.412 80.5044 70.924C80.7764 71.428 80.9124 72.016 80.9124 72.688C80.9124 73.352 80.7764 73.944 80.5044 74.464C80.2324 74.984 79.8564 75.388 79.3764 75.676C78.9044 75.964 78.3764 76.108 77.7924 76.108C77.2324 76.108 76.7364 75.984 76.3044 75.736C75.8804 75.48 75.5564 75.164 75.3324 74.788V79.12H74.2404V69.424H75.3324V70.636ZM79.7964 72.688C79.7964 72.192 79.6964 71.76 79.4964 71.392C79.2964 71.024 79.0244 70.744 78.6804 70.552C78.3444 70.36 77.9724 70.264 77.5644 70.264C77.1644 70.264 76.7924 70.364 76.4484 70.564C76.1124 70.756 75.8404 71.04 75.6324 71.416C75.4324 71.784 75.3324 72.212 75.3324 72.7C75.3324 73.196 75.4324 73.632 75.6324 74.008C75.8404 74.376 76.1124 74.66 76.4484 74.86C76.7924 75.052 77.1644 75.148 77.5644 75.148C77.9724 75.148 78.3444 75.052 78.6804 74.86C79.0244 74.66 79.2964 74.376 79.4964 74.008C79.6964 73.632 79.7964 73.192 79.7964 72.688ZM81.9418 72.688C81.9418 72.016 82.0778 71.428 82.3498 70.924C82.6218 70.412 82.9938 70.016 83.4658 69.736C83.9458 69.456 84.4778 69.316 85.0618 69.316C85.6378 69.316 86.1378 69.44 86.5618 69.688C86.9858 69.936 87.3018 70.248 87.5098 70.624V69.424H88.6138V76H87.5098V74.776C87.2938 75.16 86.9698 75.48 86.5378 75.736C86.1138 75.984 85.6178 76.108 85.0498 76.108C84.4658 76.108 83.9378 75.964 83.4658 75.676C82.9938 75.388 82.6218 74.984 82.3498 74.464C82.0778 73.944 81.9418 73.352 81.9418 72.688ZM87.5098 72.7C87.5098 72.204 87.4098 71.772 87.2098 71.404C87.0098 71.036 86.7378 70.756 86.3938 70.564C86.0578 70.364 85.6858 70.264 85.2778 70.264C84.8698 70.264 84.4978 70.36 84.1618 70.552C83.8258 70.744 83.5578 71.024 83.3578 71.392C83.1578 71.76 83.0578 72.192 83.0578 72.688C83.0578 73.192 83.1578 73.632 83.3578 74.008C83.5578 74.376 83.8258 74.66 84.1618 74.86C84.4978 75.052 84.8698 75.148 85.2778 75.148C85.6858 75.148 86.0578 75.052 86.3938 74.86C86.7378 74.66 87.0098 74.376 87.2098 74.008C87.4098 73.632 87.5098 73.196 87.5098 72.7ZM92.7872 76.108C92.2832 76.108 91.8312 76.024 91.4312 75.856C91.0312 75.68 90.7152 75.44 90.4832 75.136C90.2512 74.824 90.1232 74.468 90.0992 74.068H91.2272C91.2592 74.396 91.4112 74.664 91.6832 74.872C91.9632 75.08 92.3272 75.184 92.7752 75.184C93.1912 75.184 93.5192 75.092 93.7592 74.908C93.9992 74.724 94.1192 74.492 94.1192 74.212C94.1192 73.924 93.9912 73.712 93.7352 73.576C93.4792 73.432 93.0832 73.292 92.5472 73.156C92.0592 73.028 91.6592 72.9 91.3472 72.772C91.0432 72.636 90.7792 72.44 90.5552 72.184C90.3392 71.92 90.2312 71.576 90.2312 71.152C90.2312 70.816 90.3312 70.508 90.5312 70.228C90.7312 69.948 91.0152 69.728 91.3832 69.568C91.7512 69.4 92.1712 69.316 92.6432 69.316C93.3712 69.316 93.9592 69.5 94.4072 69.868C94.8552 70.236 95.0952 70.74 95.1272 71.38H94.0352C94.0112 71.036 93.8712 70.76 93.6152 70.552C93.3672 70.344 93.0312 70.24 92.6072 70.24C92.2152 70.24 91.9032 70.324 91.6712 70.492C91.4392 70.66 91.3232 70.88 91.3232 71.152C91.3232 71.368 91.3912 71.548 91.5272 71.692C91.6712 71.828 91.8472 71.94 92.0552 72.028C92.2712 72.108 92.5672 72.2 92.9432 72.304C93.4152 72.432 93.7992 72.56 94.0952 72.688C94.3912 72.808 94.6432 72.992 94.8512 73.24C95.0672 73.488 95.1792 73.812 95.1872 74.212C95.1872 74.572 95.0872 74.896 94.8872 75.184C94.6872 75.472 94.4032 75.7 94.0352 75.868C93.6752 76.028 93.2592 76.108 92.7872 76.108ZM99.0567 76.108C98.5527 76.108 98.1007 76.024 97.7007 75.856C97.3007 75.68 96.9847 75.44 96.7527 75.136C96.5207 74.824 96.3927 74.468 96.3687 74.068H97.4967C97.5287 74.396 97.6807 74.664 97.9527 74.872C98.2327 75.08 98.5967 75.184 99.0447 75.184C99.4607 75.184 99.7887 75.092 100.029 74.908C100.269 74.724 100.389 74.492 100.389 74.212C100.389 73.924 100.261 73.712 100.005 73.576C99.7487 73.432 99.3527 73.292 98.8167 73.156C98.3287 73.028 97.9287 72.9 97.6167 72.772C97.3127 72.636 97.0487 72.44 96.8247 72.184C96.6087 71.92 96.5007 71.576 96.5007 71.152C96.5007 70.816 96.6007 70.508 96.8007 70.228C97.0007 69.948 97.2847 69.728 97.6527 69.568C98.0207 69.4 98.4407 69.316 98.9127 69.316C99.6407 69.316 100.229 69.5 100.677 69.868C101.125 70.236 101.365 70.74 101.397 71.38H100.305C100.281 71.036 100.141 70.76 99.8847 70.552C99.6367 70.344 99.3007 70.24 98.8767 70.24C98.4847 70.24 98.1727 70.324 97.9407 70.492C97.7087 70.66 97.5927 70.88 97.5927 71.152C97.5927 71.368 97.6607 71.548 97.7967 71.692C97.9407 71.828 98.1167 71.94 98.3247 72.028C98.5407 72.108 98.8367 72.2 99.2127 72.304C99.6847 72.432 100.069 72.56 100.365 72.688C100.661 72.808 100.913 72.992 101.121 73.24C101.337 73.488 101.449 73.812 101.457 74.212C101.457 74.572 101.357 74.896 101.157 75.184C100.957 75.472 100.673 75.7 100.305 75.868C99.9447 76.028 99.5287 76.108 99.0567 76.108ZM111.758 69.424L109.706 76H108.578L106.994 70.78L105.41 76H104.282L102.218 69.424H103.334L104.846 74.944L106.478 69.424H107.594L109.19 74.956L110.678 69.424H111.758ZM115.71 76.108C115.094 76.108 114.534 75.968 114.03 75.688C113.534 75.408 113.142 75.012 112.854 74.5C112.574 73.98 112.434 73.38 112.434 72.7C112.434 72.028 112.578 71.436 112.866 70.924C113.162 70.404 113.562 70.008 114.066 69.736C114.57 69.456 115.134 69.316 115.758 69.316C116.382 69.316 116.946 69.456 117.45 69.736C117.954 70.008 118.35 70.4 118.638 70.912C118.934 71.424 119.082 72.02 119.082 72.7C119.082 73.38 118.93 73.98 118.626 74.5C118.33 75.012 117.926 75.408 117.414 75.688C116.902 75.968 116.334 76.108 115.71 76.108ZM115.71 75.148C116.102 75.148 116.47 75.056 116.814 74.872C117.158 74.688 117.434 74.412 117.642 74.044C117.858 73.676 117.966 73.228 117.966 72.7C117.966 72.172 117.862 71.724 117.654 71.356C117.446 70.988 117.174 70.716 116.838 70.54C116.502 70.356 116.138 70.264 115.746 70.264C115.346 70.264 114.978 70.356 114.642 70.54C114.314 70.716 114.05 70.988 113.85 71.356C113.65 71.724 113.55 72.172 113.55 72.7C113.55 73.236 113.646 73.688 113.838 74.056C114.038 74.424 114.302 74.7 114.63 74.884C114.958 75.06 115.318 75.148 115.71 75.148ZM121.61 70.492C121.802 70.116 122.074 69.824 122.426 69.616C122.786 69.408 123.222 69.304 123.734 69.304V70.432H123.446C122.222 70.432 121.61 71.096 121.61 72.424V76H120.518V69.424H121.61V70.492ZM124.586 72.688C124.586 72.016 124.722 71.428 124.994 70.924C125.266 70.412 125.638 70.016 126.11 69.736C126.59 69.456 127.126 69.316 127.718 69.316C128.23 69.316 128.706 69.436 129.146 69.676C129.586 69.908 129.922 70.216 130.154 70.6V67.12H131.258V76H130.154V74.764C129.938 75.156 129.618 75.48 129.194 75.736C128.77 75.984 128.274 76.108 127.706 76.108C127.122 76.108 126.59 75.964 126.11 75.676C125.638 75.388 125.266 74.984 124.994 74.464C124.722 73.944 124.586 73.352 124.586 72.688ZM130.154 72.7C130.154 72.204 130.054 71.772 129.854 71.404C129.654 71.036 129.382 70.756 129.038 70.564C128.702 70.364 128.33 70.264 127.922 70.264C127.514 70.264 127.142 70.36 126.806 70.552C126.47 70.744 126.202 71.024 126.002 71.392C125.802 71.76 125.702 72.192 125.702 72.688C125.702 73.192 125.802 73.632 126.002 74.008C126.202 74.376 126.47 74.66 126.806 74.86C127.142 75.052 127.514 75.148 127.922 75.148C128.33 75.148 128.702 75.052 129.038 74.86C129.382 74.66 129.654 74.376 129.854 74.008C130.054 73.632 130.154 73.196 130.154 72.7Z" fill="#828282"/>
<mask id="mask0_2050_1773" style="mask-type:alpha" maskUnits="userSpaceOnUse" x="264" y="60" width="24" height="24">
<rect x="264" y="60" width="24" height="24" fill="#D9D9D9"/>
</mask>
<g mask="url(#mask0_2050_1773)">
<path d="M276 74.8C276.909 74.8 277.682 74.4792 278.318 73.8375C278.955 73.1958 279.273 72.4167 279.273 71.5C279.273 70.5833 278.955 69.8042 278.318 69.1625C277.682 68.5208 276.909 68.2 276 68.2C275.091 68.2 274.318 68.5208 273.682 69.1625C273.045 69.8042 272.727 70.5833 272.727 71.5C272.727 72.4167 273.045 73.1958 273.682 73.8375C274.318 74.4792 275.091 74.8 276 74.8ZM276 73.48C275.455 73.48 274.991 73.2875 274.609 72.9025C274.227 72.5175 274.036 72.05 274.036 71.5C274.036 70.95 274.227 70.4825 274.609 70.0975C274.991 69.7125 275.455 69.52 276 69.52C276.545 69.52 277.009 69.7125 277.391 70.0975C277.773 70.4825 277.964 70.95 277.964 71.5C277.964 72.05 277.773 72.5175 277.391 72.9025C277.009 73.2875 276.545 73.48 276 73.48ZM276 77C274.23 77 272.618 76.5019 271.164 75.5058C269.709 74.5097 268.655 73.1744 268 71.5C268.655 69.8256 269.709 68.4903 271.164 67.4942C272.618 66.4981 274.23 66 276 66C277.77 66 279.382 66.4981 280.836 67.4942C282.291 68.4903 283.345 69.8256 284 71.5C283.345 73.1744 282.291 74.5097 280.836 75.5058C279.382 76.5019 277.77 77 276 77ZM276 75.5333C277.37 75.5333 278.627 75.1697 279.773 74.4425C280.918 73.7153 281.794 72.7344 282.4 71.5C281.794 70.2656 280.918 69.2847 279.773 68.5575C278.627 67.8303 277.37 67.4667 276 67.4667C274.63 67.4667 273.373 67.8303 272.227 68.5575C271.082 69.2847 270.206 70.2656 269.6 71.5C270.206 72.7344 271.082 73.7153 272.227 74.4425C273.373 75.1697 274.63 75.5333 276 75.5333Z" fill="#999999"/>
</g>
<path d="M35.232 120L33.312 116.664H32.268V120H30.9V111.66H33.78C34.42 111.66 34.96 111.772 35.4 111.996C35.848 112.22 36.18 112.52 36.396 112.896C36.62 113.272 36.732 113.692 36.732 114.156C36.732 114.7 36.572 115.196 36.252 115.644C35.94 116.084 35.456 116.384 34.8 116.544L36.864 120H35.232ZM32.268 115.572H33.78C34.292 115.572 34.676 115.444 34.932 115.188C35.196 114.932 35.328 114.588 35.328 114.156C35.328 113.724 35.2 113.388 34.944 113.148C34.688 112.9 34.3 112.776 33.78 112.776H32.268V115.572ZM44.542 116.532C44.542 116.78 44.526 117.004 44.494 117.204H39.442C39.482 117.732 39.678 118.156 40.03 118.476C40.382 118.796 40.814 118.956 41.326 118.956C42.062 118.956 42.582 118.648 42.886 118.032H44.362C44.162 118.64 43.798 119.14 43.27 119.532C42.75 119.916 42.102 120.108 41.326 120.108C40.694 120.108 40.126 119.968 39.622 119.688C39.126 119.4 38.734 119 38.446 118.488C38.166 117.968 38.026 117.368 38.026 116.688C38.026 116.008 38.162 115.412 38.434 114.9C38.714 114.38 39.102 113.98 39.598 113.7C40.102 113.42 40.678 113.28 41.326 113.28C41.95 113.28 42.506 113.416 42.994 113.688C43.482 113.96 43.862 114.344 44.134 114.84C44.406 115.328 44.542 115.892 44.542 116.532ZM43.114 116.1C43.106 115.596 42.926 115.192 42.574 114.888C42.222 114.584 41.786 114.432 41.266 114.432C40.794 114.432 40.39 114.584 40.054 114.888C39.718 115.184 39.518 115.588 39.454 116.1H43.114ZM48.6603 114.504H47.4363V120H46.0563V114.504H45.2763V113.388H46.0563V112.92C46.0563 112.16 46.2563 111.608 46.6563 111.264C47.0643 110.912 47.7003 110.736 48.5643 110.736V111.876C48.1483 111.876 47.8563 111.956 47.6883 112.116C47.5203 112.268 47.4363 112.536 47.4363 112.92V113.388H48.6603V114.504ZM55.9327 116.532C55.9327 116.78 55.9167 117.004 55.8847 117.204H50.8327C50.8727 117.732 51.0687 118.156 51.4207 118.476C51.7727 118.796 52.2047 118.956 52.7167 118.956C53.4527 118.956 53.9727 118.648 54.2767 118.032H55.7527C55.5527 118.64 55.1887 119.14 54.6607 119.532C54.1407 119.916 53.4927 120.108 52.7167 120.108C52.0847 120.108 51.5167 119.968 51.0127 119.688C50.5167 119.4 50.1247 119 49.8367 118.488C49.5567 117.968 49.4167 117.368 49.4167 116.688C49.4167 116.008 49.5527 115.412 49.8247 114.9C50.1047 114.38 50.4927 113.98 50.9887 113.7C51.4927 113.42 52.0687 113.28 52.7167 113.28C53.3407 113.28 53.8967 113.416 54.3847 113.688C54.8727 113.96 55.2527 114.344 55.5247 114.84C55.7967 115.328 55.9327 115.892 55.9327 116.532ZM54.5047 116.1C54.4967 115.596 54.3167 115.192 53.9647 114.888C53.6127 114.584 53.1767 114.432 52.6567 114.432C52.1847 114.432 51.7807 114.584 51.4447 114.888C51.1087 115.184 50.9087 115.588 50.8447 116.1H54.5047ZM58.6469 114.348C58.8469 114.012 59.1109 113.752 59.4389 113.568C59.7749 113.376 60.1709 113.28 60.6269 113.28V114.696H60.2789C59.7429 114.696 59.3349 114.832 59.0549 115.104C58.7829 115.376 58.6469 115.848 58.6469 116.52V120H57.2789V113.388H58.6469V114.348ZM63.2524 114.348C63.4524 114.012 63.7164 113.752 64.0444 113.568C64.3804 113.376 64.7764 113.28 65.2324 113.28V114.696H64.8844C64.3484 114.696 63.9404 114.832 63.6604 115.104C63.3884 115.376 63.2524 115.848 63.2524 116.52V120H61.8844V113.388H63.2524V114.348ZM66.0338 116.664C66.0338 116 66.1698 115.412 66.4418 114.9C66.7218 114.388 67.0978 113.992 67.5698 113.712C68.0498 113.424 68.5778 113.28 69.1538 113.28C69.6738 113.28 70.1258 113.384 70.5098 113.592C70.9018 113.792 71.2138 114.044 71.4458 114.348V113.388H72.8258V120H71.4458V119.016C71.2138 119.328 70.8978 119.588 70.4978 119.796C70.0978 120.004 69.6418 120.108 69.1298 120.108C68.5618 120.108 68.0418 119.964 67.5698 119.676C67.0978 119.38 66.7218 118.972 66.4418 118.452C66.1698 117.924 66.0338 117.328 66.0338 116.664ZM71.4458 116.688C71.4458 116.232 71.3498 115.836 71.1578 115.5C70.9738 115.164 70.7298 114.908 70.4258 114.732C70.1218 114.556 69.7938 114.468 69.4418 114.468C69.0898 114.468 68.7618 114.556 68.4578 114.732C68.1538 114.9 67.9058 115.152 67.7138 115.488C67.5298 115.816 67.4378 116.208 67.4378 116.664C67.4378 117.12 67.5298 117.52 67.7138 117.864C67.9058 118.208 68.1538 118.472 68.4578 118.656C68.7698 118.832 69.0978 118.92 69.4418 118.92C69.7938 118.92 70.1218 118.832 70.4258 118.656C70.7298 118.48 70.9738 118.224 71.1578 117.888C71.3498 117.544 71.4458 117.144 71.4458 116.688ZM75.9907 111.12V120H74.6227V111.12H75.9907ZM80.4479 115.812C80.4479 114.996 80.6359 114.264 81.0119 113.616C81.3959 112.968 81.9119 112.464 82.5599 112.104C83.2159 111.736 83.9319 111.552 84.7079 111.552C85.5959 111.552 86.3839 111.772 87.0719 112.212C87.7679 112.644 88.2719 113.26 88.5839 114.06H86.9399C86.7239 113.62 86.4239 113.292 86.0399 113.076C85.6559 112.86 85.2119 112.752 84.7079 112.752C84.1559 112.752 83.6639 112.876 83.2319 113.124C82.7999 113.372 82.4599 113.728 82.2119 114.192C81.9719 114.656 81.8519 115.196 81.8519 115.812C81.8519 116.428 81.9719 116.968 82.2119 117.432C82.4599 117.896 82.7999 118.256 83.2319 118.512C83.6639 118.76 84.1559 118.884 84.7079 118.884C85.2119 118.884 85.6559 118.776 86.0399 118.56C86.4239 118.344 86.7239 118.016 86.9399 117.576H88.5839C88.2719 118.376 87.7679 118.992 87.0719 119.424C86.3839 119.856 85.5959 120.072 84.7079 120.072C83.9239 120.072 83.2079 119.892 82.5599 119.532C81.9119 119.164 81.3959 118.656 81.0119 118.008C80.6359 117.36 80.4479 116.628 80.4479 115.812ZM93.0532 120.108C92.4292 120.108 91.8652 119.968 91.3612 119.688C90.8572 119.4 90.4612 119 90.1732 118.488C89.8852 117.968 89.7412 117.368 89.7412 116.688C89.7412 116.016 89.8892 115.42 90.1852 114.9C90.4812 114.38 90.8852 113.98 91.3972 113.7C91.9092 113.42 92.4812 113.28 93.1132 113.28C93.7452 113.28 94.3172 113.42 94.8292 113.7C95.3412 113.98 95.7452 114.38 96.0412 114.9C96.3372 115.42 96.4852 116.016 96.4852 116.688C96.4852 117.36 96.3332 117.956 96.0292 118.476C95.7252 118.996 95.3092 119.4 94.7812 119.688C94.2612 119.968 93.6852 120.108 93.0532 120.108ZM93.0532 118.92C93.4052 118.92 93.7332 118.836 94.0372 118.668C94.3492 118.5 94.6012 118.248 94.7932 117.912C94.9852 117.576 95.0812 117.168 95.0812 116.688C95.0812 116.208 94.9892 115.804 94.8052 115.476C94.6212 115.14 94.3772 114.888 94.0732 114.72C93.7692 114.552 93.4412 114.468 93.0892 114.468C92.7372 114.468 92.4092 114.552 92.1052 114.72C91.8092 114.888 91.5732 115.14 91.3972 115.476C91.2212 115.804 91.1332 116.208 91.1332 116.688C91.1332 117.4 91.3132 117.952 91.6732 118.344C92.0412 118.728 92.5012 118.92 93.0532 118.92ZM97.3815 116.664C97.3815 116 97.5175 115.412 97.7895 114.9C98.0695 114.388 98.4455 113.992 98.9175 113.712C99.3975 113.424 99.9295 113.28 100.514 113.28C100.946 113.28 101.37 113.376 101.786 113.568C102.21 113.752 102.546 114 102.794 114.312V111.12H104.174V120H102.794V119.004C102.57 119.324 102.258 119.588 101.858 119.796C101.466 120.004 101.014 120.108 100.502 120.108C99.9255 120.108 99.3975 119.964 98.9175 119.676C98.4455 119.38 98.0695 118.972 97.7895 118.452C97.5175 117.924 97.3815 117.328 97.3815 116.664ZM102.794 116.688C102.794 116.232 102.698 115.836 102.506 115.5C102.322 115.164 102.078 114.908 101.774 114.732C101.47 114.556 101.142 114.468 100.79 114.468C100.438 114.468 100.11 114.556 99.8055 114.732C99.5015 114.9 99.2535 115.152 99.0615 115.488C98.8775 115.816 98.7855 116.208 98.7855 116.664C98.7855 117.12 98.8775 117.52 99.0615 117.864C99.2535 118.208 99.5015 118.472 99.8055 118.656C100.118 118.832 100.446 118.92 100.79 118.92C101.142 118.92 101.47 118.832 101.774 118.656C102.078 118.48 102.322 118.224 102.506 117.888C102.698 117.544 102.794 117.144 102.794 116.688ZM112.03 116.532C112.03 116.78 112.014 117.004 111.982 117.204H106.93C106.97 117.732 107.166 118.156 107.518 118.476C107.87 118.796 108.302 118.956 108.814 118.956C109.55 118.956 110.07 118.648 110.374 118.032H111.85C111.65 118.64 111.286 119.14 110.758 119.532C110.238 119.916 109.59 120.108 108.814 120.108C108.182 120.108 107.614 119.968 107.11 119.688C106.614 119.4 106.222 119 105.934 118.488C105.654 117.968 105.514 117.368 105.514 116.688C105.514 116.008 105.65 115.412 105.922 114.9C106.202 114.38 106.59 113.98 107.086 113.7C107.59 113.42 108.166 113.28 108.814 113.28C109.438 113.28 109.994 113.416 110.482 113.688C110.97 113.96 111.35 114.344 111.622 114.84C111.894 115.328 112.03 115.892 112.03 116.532ZM110.602 116.1C110.594 115.596 110.414 115.192 110.062 114.888C109.71 114.584 109.274 114.432 108.754 114.432C108.282 114.432 107.878 114.584 107.542 114.888C107.206 115.184 107.006 115.588 106.942 116.1H110.602Z" fill="#2F2F2F"/>
<rect x="30.5" y="130.5" width="267" height="39" rx="5.5" stroke="#A18BC4"/>
<path d="M42.016 146.524V149.32H45.064V150.22H42.016V153.1H45.424V154H40.924V145.624H45.424V146.524H42.016ZM50.2803 147.304C51.0803 147.304 51.7283 147.548 52.2243 148.036C52.7203 148.516 52.9683 149.212 52.9683 150.124V154H51.8883V150.28C51.8883 149.624 51.7243 149.124 51.3963 148.78C51.0683 148.428 50.6203 148.252 50.0523 148.252C49.4763 148.252 49.0163 148.432 48.6723 148.792C48.3363 149.152 48.1683 149.676 48.1683 150.364V154H47.0763V147.424H48.1683V148.36C48.3843 148.024 48.6763 147.764 49.0443 147.58C49.4203 147.396 49.8323 147.304 50.2803 147.304ZM56.0841 148.324V152.2C56.0841 152.52 56.1521 152.748 56.2881 152.884C56.4241 153.012 56.6601 153.076 56.9961 153.076H57.8001V154H56.8161C56.2081 154 55.7521 153.86 55.4481 153.58C55.1441 153.3 54.9921 152.84 54.9921 152.2V148.324H54.1401V147.424H54.9921V145.768H56.0841V147.424H57.8001V148.324H56.0841ZM65.1232 150.46C65.1232 150.668 65.1112 150.888 65.0872 151.12H59.8312C59.8712 151.768 60.0912 152.276 60.4912 152.644C60.8992 153.004 61.3912 153.184 61.9672 153.184C62.4392 153.184 62.8312 153.076 63.1432 152.86C63.4632 152.636 63.6872 152.34 63.8152 151.972H64.9912C64.8152 152.604 64.4632 153.12 63.9352 153.52C63.4072 153.912 62.7512 154.108 61.9672 154.108C61.3432 154.108 60.7832 153.968 60.2872 153.688C59.7992 153.408 59.4152 153.012 59.1352 152.5C58.8552 151.98 58.7152 151.38 58.7152 150.7C58.7152 150.02 58.8512 149.424 59.1232 148.912C59.3952 148.4 59.7752 148.008 60.2632 147.736C60.7592 147.456 61.3272 147.316 61.9672 147.316C62.5912 147.316 63.1432 147.452 63.6232 147.724C64.1032 147.996 64.4712 148.372 64.7272 148.852C64.9912 149.324 65.1232 149.86 65.1232 150.46ZM63.9952 150.232C63.9952 149.816 63.9032 149.46 63.7192 149.164C63.5352 148.86 63.2832 148.632 62.9632 148.48C62.6512 148.32 62.3032 148.24 61.9192 148.24C61.3672 148.24 60.8952 148.416 60.5032 148.768C60.1192 149.12 59.8992 149.608 59.8432 150.232H63.9952ZM67.6566 148.492C67.8486 148.116 68.1206 147.824 68.4726 147.616C68.8326 147.408 69.2686 147.304 69.7806 147.304V148.432H69.4926C68.2686 148.432 67.6566 149.096 67.6566 150.424V154H66.5646V147.424H67.6566V148.492ZM75.3324 148.492C75.5244 148.116 75.7964 147.824 76.1484 147.616C76.5084 147.408 76.9444 147.304 77.4564 147.304V148.432H77.1684C75.9444 148.432 75.3324 149.096 75.3324 150.424V154H74.2404V147.424H75.3324V148.492ZM84.717 150.46C84.717 150.668 84.705 150.888 84.681 151.12H79.425C79.465 151.768 79.685 152.276 80.085 152.644C80.493 153.004 80.985 153.184 81.561 153.184C82.033 153.184 82.425 153.076 82.737 152.86C83.057 152.636 83.281 152.34 83.409 151.972H84.585C84.409 152.604 84.057 153.12 83.529 153.52C83.001 153.912 82.345 154.108 81.561 154.108C80.937 154.108 80.377 153.968 79.881 153.688C79.393 153.408 79.009 153.012 78.729 152.5C78.449 151.98 78.309 151.38 78.309 150.7C78.309 150.02 78.445 149.424 78.717 148.912C78.989 148.4 79.369 148.008 79.857 147.736C80.353 147.456 80.921 147.316 81.561 147.316C82.185 147.316 82.737 147.452 83.217 147.724C83.697 147.996 84.065 148.372 84.321 148.852C84.585 149.324 84.717 149.86 84.717 150.46ZM83.589 150.232C83.589 149.816 83.497 149.46 83.313 149.164C83.129 148.86 82.877 148.632 82.557 148.48C82.245 148.32 81.897 148.24 81.513 148.24C80.961 148.24 80.489 148.416 80.097 148.768C79.713 149.12 79.493 149.608 79.437 150.232H83.589ZM88.8344 148.324H87.4544V154H86.3624V148.324H85.5104V147.424H86.3624V146.956C86.3624 146.22 86.5504 145.684 86.9264 145.348C87.3104 145.004 87.9224 144.832 88.7624 144.832V145.744C88.2824 145.744 87.9424 145.84 87.7424 146.032C87.5504 146.216 87.4544 146.524 87.4544 146.956V147.424H88.8344V148.324ZM96.1076 150.46C96.1076 150.668 96.0956 150.888 96.0716 151.12H90.8156C90.8556 151.768 91.0756 152.276 91.4756 152.644C91.8836 153.004 92.3756 153.184 92.9516 153.184C93.4236 153.184 93.8156 153.076 94.1276 152.86C94.4476 152.636 94.6716 152.34 94.7996 151.972H95.9756C95.7996 152.604 95.4476 153.12 94.9196 153.52C94.3916 153.912 93.7356 154.108 92.9516 154.108C92.3276 154.108 91.7676 153.968 91.2716 153.688C90.7836 153.408 90.3996 153.012 90.1196 152.5C89.8396 151.98 89.6996 151.38 89.6996 150.7C89.6996 150.02 89.8356 149.424 90.1076 148.912C90.3796 148.4 90.7596 148.008 91.2476 147.736C91.7436 147.456 92.3116 147.316 92.9516 147.316C93.5756 147.316 94.1276 147.452 94.6076 147.724C95.0876 147.996 95.4556 148.372 95.7116 148.852C95.9756 149.324 96.1076 149.86 96.1076 150.46ZM94.9796 150.232C94.9796 149.816 94.8876 149.46 94.7036 149.164C94.5196 148.86 94.2676 148.632 93.9476 148.48C93.6356 148.32 93.2876 148.24 92.9036 148.24C92.3516 148.24 91.8796 148.416 91.4876 148.768C91.1036 149.12 90.8836 149.608 90.8276 150.232H94.9796ZM98.641 148.492C98.833 148.116 99.105 147.824 99.457 147.616C99.817 147.408 100.253 147.304 100.765 147.304V148.432H100.477C99.253 148.432 98.641 149.096 98.641 150.424V154H97.549V147.424H98.641V148.492ZM103.118 148.492C103.31 148.116 103.582 147.824 103.934 147.616C104.294 147.408 104.73 147.304 105.242 147.304V148.432H104.954C103.73 148.432 103.118 149.096 103.118 150.424V154H102.026V147.424H103.118V148.492ZM106.094 150.688C106.094 150.016 106.23 149.428 106.502 148.924C106.774 148.412 107.146 148.016 107.618 147.736C108.098 147.456 108.63 147.316 109.214 147.316C109.79 147.316 110.29 147.44 110.714 147.688C111.138 147.936 111.454 148.248 111.662 148.624V147.424H112.766V154H111.662V152.776C111.446 153.16 111.122 153.48 110.69 153.736C110.266 153.984 109.77 154.108 109.202 154.108C108.618 154.108 108.09 153.964 107.618 153.676C107.146 153.388 106.774 152.984 106.502 152.464C106.23 151.944 106.094 151.352 106.094 150.688ZM111.662 150.7C111.662 150.204 111.562 149.772 111.362 149.404C111.162 149.036 110.89 148.756 110.546 148.564C110.21 148.364 109.838 148.264 109.43 148.264C109.022 148.264 108.65 148.36 108.314 148.552C107.978 148.744 107.71 149.024 107.51 149.392C107.31 149.76 107.21 150.192 107.21 150.688C107.21 151.192 107.31 151.632 107.51 152.008C107.71 152.376 107.978 152.66 108.314 152.86C108.65 153.052 109.022 153.148 109.43 153.148C109.838 153.148 110.21 153.052 110.546 152.86C110.89 152.66 111.162 152.376 111.362 152.008C111.562 151.632 111.662 151.196 111.662 150.7ZM115.704 145.12V154H114.612V145.12H115.704ZM120.356 150.7C120.356 150.02 120.492 149.428 120.764 148.924C121.036 148.412 121.412 148.016 121.892 147.736C122.38 147.456 122.936 147.316 123.56 147.316C124.368 147.316 125.032 147.512 125.552 147.904C126.08 148.296 126.428 148.84 126.596 149.536H125.42C125.308 149.136 125.088 148.82 124.76 148.588C124.44 148.356 124.04 148.24 123.56 148.24C122.936 148.24 122.432 148.456 122.048 148.888C121.664 149.312 121.472 149.916 121.472 150.7C121.472 151.492 121.664 152.104 122.048 152.536C122.432 152.968 122.936 153.184 123.56 153.184C124.04 153.184 124.44 153.072 124.76 152.848C125.08 152.624 125.3 152.304 125.42 151.888H126.596C126.42 152.56 126.068 153.1 125.54 153.508C125.012 153.908 124.352 154.108 123.56 154.108C122.936 154.108 122.38 153.968 121.892 153.688C121.412 153.408 121.036 153.012 120.764 152.5C120.492 151.988 120.356 151.388 120.356 150.7ZM130.921 154.108C130.305 154.108 129.745 153.968 129.241 153.688C128.745 153.408 128.353 153.012 128.065 152.5C127.785 151.98 127.645 151.38 127.645 150.7C127.645 150.028 127.789 149.436 128.077 148.924C128.373 148.404 128.773 148.008 129.277 147.736C129.781 147.456 130.345 147.316 130.969 147.316C131.593 147.316 132.157 147.456 132.661 147.736C133.165 148.008 133.561 148.4 133.849 148.912C134.145 149.424 134.293 150.02 134.293 150.7C134.293 151.38 134.141 151.98 133.837 152.5C133.541 153.012 133.137 153.408 132.625 153.688C132.113 153.968 131.545 154.108 130.921 154.108ZM130.921 153.148C131.313 153.148 131.681 153.056 132.025 152.872C132.369 152.688 132.645 152.412 132.853 152.044C133.069 151.676 133.177 151.228 133.177 150.7C133.177 150.172 133.073 149.724 132.865 149.356C132.657 148.988 132.385 148.716 132.049 148.54C131.713 148.356 131.349 148.264 130.957 148.264C130.557 148.264 130.189 148.356 129.853 148.54C129.525 148.716 129.261 148.988 129.061 149.356C128.861 149.724 128.761 150.172 128.761 150.7C128.761 151.236 128.857 151.688 129.049 152.056C129.249 152.424 129.513 152.7 129.841 152.884C130.169 153.06 130.529 153.148 130.921 153.148ZM135.321 150.688C135.321 150.016 135.457 149.428 135.729 148.924C136.001 148.412 136.373 148.016 136.845 147.736C137.325 147.456 137.861 147.316 138.453 147.316C138.965 147.316 139.441 147.436 139.881 147.676C140.321 147.908 140.657 148.216 140.889 148.6V145.12H141.993V154H140.889V152.764C140.673 153.156 140.353 153.48 139.929 153.736C139.505 153.984 139.009 154.108 138.441 154.108C137.857 154.108 137.325 153.964 136.845 153.676C136.373 153.388 136.001 152.984 135.729 152.464C135.457 151.944 135.321 151.352 135.321 150.688ZM140.889 150.7C140.889 150.204 140.789 149.772 140.589 149.404C140.389 149.036 140.117 148.756 139.773 148.564C139.437 148.364 139.065 148.264 138.657 148.264C138.249 148.264 137.877 148.36 137.541 148.552C137.205 148.744 136.937 149.024 136.737 149.392C136.537 149.76 136.437 150.192 136.437 150.688C136.437 151.192 136.537 151.632 136.737 152.008C136.937 152.376 137.205 152.66 137.541 152.86C137.877 153.052 138.249 153.148 138.657 153.148C139.065 153.148 139.437 153.052 139.773 152.86C140.117 152.66 140.389 152.376 140.589 152.008C140.789 151.632 140.889 151.196 140.889 150.7ZM149.838 150.46C149.838 150.668 149.826 150.888 149.802 151.12H144.546C144.586 151.768 144.806 152.276 145.206 152.644C145.614 153.004 146.106 153.184 146.682 153.184C147.154 153.184 147.546 153.076 147.858 152.86C148.178 152.636 148.402 152.34 148.53 151.972H149.706C149.53 152.604 149.178 153.12 148.65 153.52C148.122 153.912 147.466 154.108 146.682 154.108C146.058 154.108 145.498 153.968 145.002 153.688C144.514 153.408 144.13 153.012 143.85 152.5C143.57 151.98 143.43 151.38 143.43 150.7C143.43 150.02 143.566 149.424 143.838 148.912C144.11 148.4 144.49 148.008 144.978 147.736C145.474 147.456 146.042 147.316 146.682 147.316C147.306 147.316 147.858 147.452 148.338 147.724C148.818 147.996 149.186 148.372 149.442 148.852C149.706 149.324 149.838 149.86 149.838 150.46ZM148.71 150.232C148.71 149.816 148.618 149.46 148.434 149.164C148.25 148.86 147.998 148.632 147.678 148.48C147.366 148.32 147.018 148.24 146.634 148.24C146.082 148.24 145.61 148.416 145.218 148.768C144.834 149.12 144.614 149.608 144.558 150.232H148.71Z" fill="#828282"/>
<rect x="31" y="181" width="16" height="16" stroke="#9F9C9C" stroke-width="2"/>
<path d="M63.868 191.14H60.22L59.548 193H58.396L61.42 184.684H62.68L65.692 193H64.54L63.868 191.14ZM63.556 190.252L62.044 186.028L60.532 190.252H63.556ZM66.6019 189.7C66.6019 189.02 66.7379 188.428 67.0099 187.924C67.2819 187.412 67.6579 187.016 68.1379 186.736C68.6259 186.456 69.1819 186.316 69.8059 186.316C70.6139 186.316 71.2779 186.512 71.7979 186.904C72.3259 187.296 72.6739 187.84 72.8419 188.536H71.6659C71.5539 188.136 71.3339 187.82 71.0059 187.588C70.6859 187.356 70.2859 187.24 69.8059 187.24C69.1819 187.24 68.6779 187.456 68.2939 187.888C67.9099 188.312 67.7179 188.916 67.7179 189.7C67.7179 190.492 67.9099 191.104 68.2939 191.536C68.6779 191.968 69.1819 192.184 69.8059 192.184C70.2859 192.184 70.6859 192.072 71.0059 191.848C71.3259 191.624 71.5459 191.304 71.6659 190.888H72.8419C72.6659 191.56 72.3139 192.1 71.7859 192.508C71.2579 192.908 70.5979 193.108 69.8059 193.108C69.1819 193.108 68.6259 192.968 68.1379 192.688C67.6579 192.408 67.2819 192.012 67.0099 191.5C66.7379 190.988 66.6019 190.388 66.6019 189.7ZM73.891 189.7C73.891 189.02 74.027 188.428 74.299 187.924C74.571 187.412 74.947 187.016 75.427 186.736C75.915 186.456 76.471 186.316 77.095 186.316C77.903 186.316 78.567 186.512 79.087 186.904C79.615 187.296 79.963 187.84 80.131 188.536H78.955C78.843 188.136 78.623 187.82 78.295 187.588C77.975 187.356 77.575 187.24 77.095 187.24C76.471 187.24 75.967 187.456 75.583 187.888C75.199 188.312 75.007 188.916 75.007 189.7C75.007 190.492 75.199 191.104 75.583 191.536C75.967 191.968 76.471 192.184 77.095 192.184C77.575 192.184 77.975 192.072 78.295 191.848C78.615 191.624 78.835 191.304 78.955 190.888H80.131C79.955 191.56 79.603 192.1 79.075 192.508C78.547 192.908 77.887 193.108 77.095 193.108C76.471 193.108 75.915 192.968 75.427 192.688C74.947 192.408 74.571 192.012 74.299 191.5C74.027 190.988 73.891 190.388 73.891 189.7ZM87.5881 189.46C87.5881 189.668 87.5761 189.888 87.5521 190.12H82.2961C82.3361 190.768 82.5561 191.276 82.9561 191.644C83.3641 192.004 83.8561 192.184 84.4321 192.184C84.9041 192.184 85.2961 192.076 85.6081 191.86C85.9281 191.636 86.1521 191.34 86.2801 190.972H87.4561C87.2801 191.604 86.9281 192.12 86.4001 192.52C85.8721 192.912 85.2161 193.108 84.4321 193.108C83.8081 193.108 83.2481 192.968 82.7521 192.688C82.2641 192.408 81.8801 192.012 81.6001 191.5C81.3201 190.98 81.1801 190.38 81.1801 189.7C81.1801 189.02 81.3161 188.424 81.5881 187.912C81.8601 187.4 82.2401 187.008 82.7281 186.736C83.2241 186.456 83.7921 186.316 84.4321 186.316C85.0561 186.316 85.6081 186.452 86.0881 186.724C86.5681 186.996 86.9361 187.372 87.1921 187.852C87.4561 188.324 87.5881 188.86 87.5881 189.46ZM86.4601 189.232C86.4601 188.816 86.3681 188.46 86.1841 188.164C86.0001 187.86 85.7481 187.632 85.4281 187.48C85.1161 187.32 84.7681 187.24 84.3841 187.24C83.8321 187.24 83.3601 187.416 82.9681 187.768C82.5841 188.12 82.3641 188.608 82.3081 189.232H86.4601ZM90.1215 187.636C90.3375 187.26 90.6575 186.948 91.0815 186.7C91.5135 186.444 92.0135 186.316 92.5815 186.316C93.1655 186.316 93.6935 186.456 94.1655 186.736C94.6455 187.016 95.0215 187.412 95.2935 187.924C95.5655 188.428 95.7015 189.016 95.7015 189.688C95.7015 190.352 95.5655 190.944 95.2935 191.464C95.0215 191.984 94.6455 192.388 94.1655 192.676C93.6935 192.964 93.1655 193.108 92.5815 193.108C92.0215 193.108 91.5255 192.984 91.0935 192.736C90.6695 192.48 90.3455 192.164 90.1215 191.788V196.12H89.0295V186.424H90.1215V187.636ZM94.5855 189.688C94.5855 189.192 94.4855 188.76 94.2855 188.392C94.0855 188.024 93.8135 187.744 93.4695 187.552C93.1335 187.36 92.7615 187.264 92.3535 187.264C91.9535 187.264 91.5815 187.364 91.2375 187.564C90.9015 187.756 90.6295 188.04 90.4215 188.416C90.2215 188.784 90.1215 189.212 90.1215 189.7C90.1215 190.196 90.2215 190.632 90.4215 191.008C90.6295 191.376 90.9015 191.66 91.2375 191.86C91.5815 192.052 91.9535 192.148 92.3535 192.148C92.7615 192.148 93.1335 192.052 93.4695 191.86C93.8135 191.66 94.0855 191.376 94.2855 191.008C94.4855 190.632 94.5855 190.192 94.5855 189.688ZM98.4708 187.324V191.2C98.4708 191.52 98.5388 191.748 98.6748 191.884C98.8108 192.012 99.0468 192.076 99.3828 192.076H100.187V193H99.2028C98.5948 193 98.1388 192.86 97.8348 192.58C97.5308 192.3 97.3788 191.84 97.3788 191.2V187.324H96.5268V186.424H97.3788V184.768H98.4708V186.424H100.187V187.324H98.4708ZM101.102 189.688C101.102 189.016 101.238 188.428 101.51 187.924C101.782 187.412 102.154 187.016 102.626 186.736C103.106 186.456 103.638 186.316 104.222 186.316C104.798 186.316 105.298 186.44 105.722 186.688C106.146 186.936 106.462 187.248 106.67 187.624V186.424H107.774V193H106.67V191.776C106.454 192.16 106.13 192.48 105.698 192.736C105.274 192.984 104.778 193.108 104.21 193.108C103.626 193.108 103.098 192.964 102.626 192.676C102.154 192.388 101.782 191.984 101.51 191.464C101.238 190.944 101.102 190.352 101.102 189.688ZM106.67 189.7C106.67 189.204 106.57 188.772 106.37 188.404C106.17 188.036 105.898 187.756 105.554 187.564C105.218 187.364 104.846 187.264 104.438 187.264C104.03 187.264 103.658 187.36 103.322 187.552C102.986 187.744 102.718 188.024 102.518 188.392C102.318 188.76 102.218 189.192 102.218 189.688C102.218 190.192 102.318 190.632 102.518 191.008C102.718 191.376 102.986 191.66 103.322 191.86C103.658 192.052 104.03 192.148 104.438 192.148C104.846 192.148 105.218 192.052 105.554 191.86C105.898 191.66 106.17 191.376 106.37 191.008C106.57 190.632 106.67 190.196 106.67 189.7ZM112.823 186.304C113.623 186.304 114.271 186.548 114.767 187.036C115.263 187.516 115.511 188.212 115.511 189.124V193H114.431V189.28C114.431 188.624 114.267 188.124 113.939 187.78C113.611 187.428 113.163 187.252 112.595 187.252C112.019 187.252 111.559 187.432 111.215 187.792C110.879 188.152 110.711 188.676 110.711 189.364V193H109.619V186.424H110.711V187.36C110.927 187.024 111.219 186.764 111.587 186.58C111.963 186.396 112.375 186.304 112.823 186.304ZM116.887 189.7C116.887 189.02 117.023 188.428 117.295 187.924C117.567 187.412 117.943 187.016 118.423 186.736C118.911 186.456 119.467 186.316 120.091 186.316C120.899 186.316 121.563 186.512 122.083 186.904C122.611 187.296 122.959 187.84 123.127 188.536H121.951C121.839 188.136 121.619 187.82 121.291 187.588C120.971 187.356 120.571 187.24 120.091 187.24C119.467 187.24 118.963 187.456 118.579 187.888C118.195 188.312 118.003 188.916 118.003 189.7C118.003 190.492 118.195 191.104 118.579 191.536C118.963 191.968 119.467 192.184 120.091 192.184C120.571 192.184 120.971 192.072 121.291 191.848C121.611 191.624 121.831 191.304 121.951 190.888H123.127C122.951 191.56 122.599 192.1 122.071 192.508C121.543 192.908 120.883 193.108 120.091 193.108C119.467 193.108 118.911 192.968 118.423 192.688C117.943 192.408 117.567 192.012 117.295 191.5C117.023 190.988 116.887 190.388 116.887 189.7ZM130.584 189.46C130.584 189.668 130.572 189.888 130.548 190.12H125.292C125.332 190.768 125.552 191.276 125.952 191.644C126.36 192.004 126.852 192.184 127.428 192.184C127.9 192.184 128.292 192.076 128.604 191.86C128.924 191.636 129.148 191.34 129.276 190.972H130.452C130.276 191.604 129.924 192.12 129.396 192.52C128.868 192.912 128.212 193.108 127.428 193.108C126.804 193.108 126.244 192.968 125.748 192.688C125.26 192.408 124.876 192.012 124.596 191.5C124.316 190.98 124.176 190.38 124.176 189.7C124.176 189.02 124.312 188.424 124.584 187.912C124.856 187.4 125.236 187.008 125.724 186.736C126.22 186.456 126.788 186.316 127.428 186.316C128.052 186.316 128.604 186.452 129.084 186.724C129.564 186.996 129.932 187.372 130.188 187.852C130.452 188.324 130.584 188.86 130.584 189.46ZM129.456 189.232C129.456 188.816 129.364 188.46 129.18 188.164C128.996 187.86 128.744 187.632 128.424 187.48C128.112 187.32 127.764 187.24 127.38 187.24C126.828 187.24 126.356 187.416 125.964 187.768C125.58 188.12 125.36 188.608 125.304 189.232H129.456ZM138.093 193.108C137.477 193.108 136.917 192.968 136.413 192.688C135.917 192.408 135.525 192.012 135.237 191.5C134.957 190.98 134.817 190.38 134.817 189.7C134.817 189.028 134.961 188.436 135.249 187.924C135.545 187.404 135.945 187.008 136.449 186.736C136.953 186.456 137.517 186.316 138.141 186.316C138.765 186.316 139.329 186.456 139.833 186.736C140.337 187.008 140.733 187.4 141.021 187.912C141.317 188.424 141.465 189.02 141.465 189.7C141.465 190.38 141.313 190.98 141.009 191.5C140.713 192.012 140.309 192.408 139.797 192.688C139.285 192.968 138.717 193.108 138.093 193.108ZM138.093 192.148C138.485 192.148 138.853 192.056 139.197 191.872C139.541 191.688 139.817 191.412 140.025 191.044C140.241 190.676 140.349 190.228 140.349 189.7C140.349 189.172 140.245 188.724 140.037 188.356C139.829 187.988 139.557 187.716 139.221 187.54C138.885 187.356 138.521 187.264 138.129 187.264C137.729 187.264 137.361 187.356 137.025 187.54C136.697 187.716 136.433 187.988 136.233 188.356C136.033 188.724 135.933 189.172 135.933 189.7C135.933 190.236 136.029 190.688 136.221 191.056C136.421 191.424 136.685 191.7 137.013 191.884C137.341 192.06 137.701 192.148 138.093 192.148ZM145.577 187.324H144.197V193H143.105V187.324H142.253V186.424H143.105V185.956C143.105 185.22 143.293 184.684 143.669 184.348C144.053 184.004 144.665 183.832 145.505 183.832V184.744C145.025 184.744 144.685 184.84 144.485 185.032C144.293 185.216 144.197 185.524 144.197 185.956V186.424H145.577V187.324ZM155.197 184.636V185.524H152.917V193H151.825V185.524H149.533V184.636H155.197ZM162.541 189.46C162.541 189.668 162.529 189.888 162.505 190.12H157.249C157.289 190.768 157.509 191.276 157.909 191.644C158.317 192.004 158.809 192.184 159.385 192.184C159.857 192.184 160.249 192.076 160.561 191.86C160.881 191.636 161.105 191.34 161.233 190.972H162.409C162.233 191.604 161.881 192.12 161.353 192.52C160.825 192.912 160.169 193.108 159.385 193.108C158.761 193.108 158.201 192.968 157.705 192.688C157.217 192.408 156.833 192.012 156.553 191.5C156.273 190.98 156.133 190.38 156.133 189.7C156.133 189.02 156.269 188.424 156.541 187.912C156.813 187.4 157.193 187.008 157.681 186.736C158.177 186.456 158.745 186.316 159.385 186.316C160.009 186.316 160.561 186.452 161.041 186.724C161.521 186.996 161.889 187.372 162.145 187.852C162.409 188.324 162.541 188.86 162.541 189.46ZM161.413 189.232C161.413 188.816 161.321 188.46 161.137 188.164C160.953 187.86 160.701 187.632 160.381 187.48C160.069 187.32 159.721 187.24 159.337 187.24C158.785 187.24 158.313 187.416 157.921 187.768C157.537 188.12 157.317 188.608 157.261 189.232H161.413ZM165.075 187.492C165.267 187.116 165.539 186.824 165.891 186.616C166.251 186.408 166.687 186.304 167.199 186.304V187.432H166.911C165.687 187.432 165.075 188.096 165.075 189.424V193H163.983V186.424H165.075V187.492ZM176.367 186.304C176.879 186.304 177.335 186.412 177.735 186.628C178.135 186.836 178.451 187.152 178.683 187.576C178.915 188 179.031 188.516 179.031 189.124V193H177.951V189.28C177.951 188.624 177.787 188.124 177.459 187.78C177.139 187.428 176.703 187.252 176.151 187.252C175.583 187.252 175.131 187.436 174.795 187.804C174.459 188.164 174.291 188.688 174.291 189.376V193H173.211V189.28C173.211 188.624 173.047 188.124 172.719 187.78C172.399 187.428 171.963 187.252 171.411 187.252C170.843 187.252 170.391 187.436 170.055 187.804C169.719 188.164 169.551 188.688 169.551 189.376V193H168.459V186.424H169.551V187.372C169.767 187.028 170.055 186.764 170.415 186.58C170.783 186.396 171.187 186.304 171.627 186.304C172.179 186.304 172.667 186.428 173.091 186.676C173.515 186.924 173.831 187.288 174.039 187.768C174.223 187.304 174.527 186.944 174.951 186.688C175.375 186.432 175.847 186.304 176.367 186.304ZM183.15 193.108C182.646 193.108 182.194 193.024 181.794 192.856C181.394 192.68 181.078 192.44 180.846 192.136C180.614 191.824 180.486 191.468 180.462 191.068H181.59C181.622 191.396 181.774 191.664 182.046 191.872C182.326 192.08 182.69 192.184 183.138 192.184C183.554 192.184 183.882 192.092 184.122 191.908C184.362 191.724 184.482 191.492 184.482 191.212C184.482 190.924 184.354 190.712 184.098 190.576C183.842 190.432 183.446 190.292 182.91 190.156C182.422 190.028 182.022 189.9 181.71 189.772C181.406 189.636 181.142 189.44 180.918 189.184C180.702 188.92 180.594 188.576 180.594 188.152C180.594 187.816 180.694 187.508 180.894 187.228C181.094 186.948 181.378 186.728 181.746 186.568C182.114 186.4 182.534 186.316 183.006 186.316C183.734 186.316 184.322 186.5 184.77 186.868C185.218 187.236 185.458 187.74 185.49 188.38H184.398C184.374 188.036 184.234 187.76 183.978 187.552C183.73 187.344 183.394 187.24 182.97 187.24C182.578 187.24 182.266 187.324 182.034 187.492C181.802 187.66 181.686 187.88 181.686 188.152C181.686 188.368 181.754 188.548 181.89 188.692C182.034 188.828 182.21 188.94 182.418 189.028C182.634 189.108 182.93 189.2 183.306 189.304C183.778 189.432 184.162 189.56 184.458 189.688C184.754 189.808 185.006 189.992 185.214 190.24C185.43 190.488 185.542 190.812 185.55 191.212C185.55 191.572 185.45 191.896 185.25 192.184C185.05 192.472 184.766 192.7 184.398 192.868C184.038 193.028 183.622 193.108 183.15 193.108ZM189.883 189.688C189.883 189.016 190.019 188.428 190.291 187.924C190.563 187.412 190.935 187.016 191.407 186.736C191.887 186.456 192.419 186.316 193.003 186.316C193.579 186.316 194.079 186.44 194.503 186.688C194.927 186.936 195.243 187.248 195.451 187.624V186.424H196.555V193H195.451V191.776C195.235 192.16 194.911 192.48 194.479 192.736C194.055 192.984 193.559 193.108 192.991 193.108C192.407 193.108 191.879 192.964 191.407 192.676C190.935 192.388 190.563 191.984 190.291 191.464C190.019 190.944 189.883 190.352 189.883 189.688ZM195.451 189.7C195.451 189.204 195.351 188.772 195.151 188.404C194.951 188.036 194.679 187.756 194.335 187.564C193.999 187.364 193.627 187.264 193.219 187.264C192.811 187.264 192.439 187.36 192.103 187.552C191.767 187.744 191.499 188.024 191.299 188.392C191.099 188.76 190.999 189.192 190.999 189.688C190.999 190.192 191.099 190.632 191.299 191.008C191.499 191.376 191.767 191.66 192.103 191.86C192.439 192.052 192.811 192.148 193.219 192.148C193.627 192.148 193.999 192.052 194.335 191.86C194.679 191.66 194.951 191.376 195.151 191.008C195.351 190.632 195.451 190.196 195.451 189.7ZM201.605 186.304C202.405 186.304 203.053 186.548 203.549 187.036C204.045 187.516 204.293 188.212 204.293 189.124V193H203.213V189.28C203.213 188.624 203.049 188.124 202.721 187.78C202.393 187.428 201.945 187.252 201.377 187.252C200.801 187.252 200.341 187.432 199.997 187.792C199.661 188.152 199.493 188.676 199.493 189.364V193H198.401V186.424H199.493V187.36C199.709 187.024 200.001 186.764 200.369 186.58C200.745 186.396 201.157 186.304 201.605 186.304ZM205.668 189.688C205.668 189.016 205.804 188.428 206.076 187.924C206.348 187.412 206.72 187.016 207.192 186.736C207.672 186.456 208.208 186.316 208.8 186.316C209.312 186.316 209.788 186.436 210.228 186.676C210.668 186.908 211.004 187.216 211.236 187.6V184.12H212.34V193H211.236V191.764C211.02 192.156 210.7 192.48 210.276 192.736C209.852 192.984 209.356 193.108 208.788 193.108C208.204 193.108 207.672 192.964 207.192 192.676C206.72 192.388 206.348 191.984 206.076 191.464C205.804 190.944 205.668 190.352 205.668 189.688ZM211.236 189.7C211.236 189.204 211.136 188.772 210.936 188.404C210.736 188.036 210.464 187.756 210.12 187.564C209.784 187.364 209.412 187.264 209.004 187.264C208.596 187.264 208.224 187.36 207.888 187.552C207.552 187.744 207.284 188.024 207.084 188.392C206.884 188.76 206.784 189.192 206.784 189.688C206.784 190.192 206.884 190.632 207.084 191.008C207.284 191.376 207.552 191.66 207.888 191.86C208.224 192.052 208.596 192.148 209.004 192.148C209.412 192.148 209.784 192.052 210.12 191.86C210.464 191.66 210.736 191.376 210.936 191.008C211.136 190.632 211.236 190.196 211.236 189.7ZM216.977 188.812C216.977 187.996 217.161 187.264 217.529 186.616C217.897 185.96 218.397 185.448 219.029 185.08C219.669 184.712 220.377 184.528 221.153 184.528C222.065 184.528 222.861 184.748 223.541 185.188C224.221 185.628 224.717 186.252 225.029 187.06H223.721C223.489 186.556 223.153 186.168 222.713 185.896C222.281 185.624 221.761 185.488 221.153 185.488C220.569 185.488 220.045 185.624 219.581 185.896C219.117 186.168 218.753 186.556 218.489 187.06C218.225 187.556 218.093 188.14 218.093 188.812C218.093 189.476 218.225 190.06 218.489 190.564C218.753 191.06 219.117 191.444 219.581 191.716C220.045 191.988 220.569 192.124 221.153 192.124C221.761 192.124 222.281 191.992 222.713 191.728C223.153 191.456 223.489 191.068 223.721 190.564H225.029C224.717 191.364 224.221 191.984 223.541 192.424C222.861 192.856 222.065 193.072 221.153 193.072C220.377 193.072 219.669 192.892 219.029 192.532C218.397 192.164 217.897 191.656 217.529 191.008C217.161 190.36 216.977 189.628 216.977 188.812ZM229.522 193.108C228.906 193.108 228.346 192.968 227.842 192.688C227.346 192.408 226.954 192.012 226.666 191.5C226.386 190.98 226.246 190.38 226.246 189.7C226.246 189.028 226.39 188.436 226.678 187.924C226.974 187.404 227.374 187.008 227.878 186.736C228.382 186.456 228.946 186.316 229.57 186.316C230.194 186.316 230.758 186.456 231.262 186.736C231.766 187.008 232.162 187.4 232.45 187.912C232.746 188.424 232.894 189.02 232.894 189.7C232.894 190.38 232.742 190.98 232.438 191.5C232.142 192.012 231.738 192.408 231.226 192.688C230.714 192.968 230.146 193.108 229.522 193.108ZM229.522 192.148C229.914 192.148 230.282 192.056 230.626 191.872C230.97 191.688 231.246 191.412 231.454 191.044C231.67 190.676 231.778 190.228 231.778 189.7C231.778 189.172 231.674 188.724 231.466 188.356C231.258 187.988 230.986 187.716 230.65 187.54C230.314 187.356 229.95 187.264 229.558 187.264C229.158 187.264 228.79 187.356 228.454 187.54C228.126 187.716 227.862 187.988 227.662 188.356C227.462 188.724 227.362 189.172 227.362 189.7C227.362 190.236 227.458 190.688 227.65 191.056C227.85 191.424 228.114 191.7 228.442 191.884C228.77 192.06 229.13 192.148 229.522 192.148ZM237.534 186.304C238.334 186.304 238.982 186.548 239.478 187.036C239.974 187.516 240.222 188.212 240.222 189.124V193H239.142V189.28C239.142 188.624 238.978 188.124 238.65 187.78C238.322 187.428 237.874 187.252 237.306 187.252C236.73 187.252 236.27 187.432 235.926 187.792C235.59 188.152 235.422 188.676 235.422 189.364V193H234.33V186.424H235.422V187.36C235.638 187.024 235.93 186.764 236.298 186.58C236.674 186.396 237.086 186.304 237.534 186.304ZM241.598 189.688C241.598 189.016 241.734 188.428 242.006 187.924C242.278 187.412 242.65 187.016 243.122 186.736C243.602 186.456 244.138 186.316 244.73 186.316C245.242 186.316 245.718 186.436 246.158 186.676C246.598 186.908 246.934 187.216 247.166 187.6V184.12H248.27V193H247.166V191.764C246.95 192.156 246.63 192.48 246.206 192.736C245.782 192.984 245.286 193.108 244.718 193.108C244.134 193.108 243.602 192.964 243.122 192.676C242.65 192.388 242.278 191.984 242.006 191.464C241.734 190.944 241.598 190.352 241.598 189.688ZM247.166 189.7C247.166 189.204 247.066 188.772 246.866 188.404C246.666 188.036 246.394 187.756 246.05 187.564C245.714 187.364 245.342 187.264 244.934 187.264C244.526 187.264 244.154 187.36 243.818 187.552C243.482 187.744 243.214 188.024 243.014 188.392C242.814 188.76 242.714 189.192 242.714 189.688C242.714 190.192 242.814 190.632 243.014 191.008C243.214 191.376 243.482 191.66 243.818 191.86C244.154 192.052 244.526 192.148 244.934 192.148C245.342 192.148 245.714 192.052 246.05 191.86C246.394 191.66 246.666 191.376 246.866 191.008C247.066 190.632 247.166 190.196 247.166 189.7ZM250.679 185.356C250.471 185.356 250.295 185.284 250.151 185.14C250.007 184.996 249.935 184.82 249.935 184.612C249.935 184.404 250.007 184.228 250.151 184.084C250.295 183.94 250.471 183.868 250.679 183.868C250.879 183.868 251.047 183.94 251.183 184.084C251.327 184.228 251.399 184.404 251.399 184.612C251.399 184.82 251.327 184.996 251.183 185.14C251.047 185.284 250.879 185.356 250.679 185.356ZM251.207 186.424V193H250.115V186.424H251.207ZM254.401 187.324V191.2C254.401 191.52 254.469 191.748 254.605 191.884C254.741 192.012 254.977 192.076 255.313 192.076H256.117V193H255.133C254.525 193 254.069 192.86 253.765 192.58C253.461 192.3 253.309 191.84 253.309 191.2V187.324H252.457V186.424H253.309V184.768H254.401V186.424H256.117V187.324H254.401ZM258.004 185.356C257.796 185.356 257.62 185.284 257.476 185.14C257.332 184.996 257.26 184.82 257.26 184.612C257.26 184.404 257.332 184.228 257.476 184.084C257.62 183.94 257.796 183.868 258.004 183.868C258.204 183.868 258.372 183.94 258.508 184.084C258.652 184.228 258.724 184.404 258.724 184.612C258.724 184.82 258.652 184.996 258.508 185.14C258.372 185.284 258.204 185.356 258.004 185.356ZM258.532 186.424V193H257.44V186.424H258.532ZM263.261 193.108C262.645 193.108 262.085 192.968 261.581 192.688C261.085 192.408 260.693 192.012 260.405 191.5C260.125 190.98 259.985 190.38 259.985 189.7C259.985 189.028 260.129 188.436 260.417 187.924C260.713 187.404 261.113 187.008 261.617 186.736C262.121 186.456 262.685 186.316 263.309 186.316C263.933 186.316 264.497 186.456 265.001 186.736C265.505 187.008 265.901 187.4 266.189 187.912C266.485 188.424 266.633 189.02 266.633 189.7C266.633 190.38 266.481 190.98 266.177 191.5C265.881 192.012 265.477 192.408 264.965 192.688C264.453 192.968 263.885 193.108 263.261 193.108ZM263.261 192.148C263.653 192.148 264.021 192.056 264.365 191.872C264.709 191.688 264.985 191.412 265.193 191.044C265.409 190.676 265.517 190.228 265.517 189.7C265.517 189.172 265.413 188.724 265.205 188.356C264.997 187.988 264.725 187.716 264.389 187.54C264.053 187.356 263.689 187.264 263.297 187.264C262.897 187.264 262.529 187.356 262.193 187.54C261.865 187.716 261.601 187.988 261.401 188.356C261.201 188.724 261.101 189.172 261.101 189.7C261.101 190.236 261.197 190.688 261.389 191.056C261.589 191.424 261.853 191.7 262.181 191.884C262.509 192.06 262.869 192.148 263.261 192.148ZM271.273 186.304C272.073 186.304 272.721 186.548 273.217 187.036C273.713 187.516 273.961 188.212 273.961 189.124V193H272.881V189.28C272.881 188.624 272.717 188.124 272.389 187.78C272.061 187.428 271.613 187.252 271.045 187.252C270.469 187.252 270.009 187.432 269.665 187.792C269.329 188.152 269.161 188.676 269.161 189.364V193H268.069V186.424H269.161V187.36C269.377 187.024 269.669 186.764 270.037 186.58C270.413 186.396 270.825 186.304 271.273 186.304ZM278.072 193.108C277.568 193.108 277.116 193.024 276.716 192.856C276.316 192.68 276 192.44 275.768 192.136C275.536 191.824 275.408 191.468 275.384 191.068H276.512C276.544 191.396 276.696 191.664 276.968 191.872C277.248 192.08 277.612 192.184 278.06 192.184C278.476 192.184 278.804 192.092 279.044 191.908C279.284 191.724 279.404 191.492 279.404 191.212C279.404 190.924 279.276 190.712 279.02 190.576C278.764 190.432 278.368 190.292 277.832 190.156C277.344 190.028 276.944 189.9 276.632 189.772C276.328 189.636 276.064 189.44 275.84 189.184C275.624 188.92 275.516 188.576 275.516 188.152C275.516 187.816 275.616 187.508 275.816 187.228C276.016 186.948 276.3 186.728 276.668 186.568C277.036 186.4 277.456 186.316 277.928 186.316C278.656 186.316 279.244 186.5 279.692 186.868C280.14 187.236 280.38 187.74 280.412 188.38H279.32C279.296 188.036 279.156 187.76 278.9 187.552C278.652 187.344 278.316 187.24 277.892 187.24C277.5 187.24 277.188 187.324 276.956 187.492C276.724 187.66 276.608 187.88 276.608 188.152C276.608 188.368 276.676 188.548 276.812 188.692C276.956 188.828 277.132 188.94 277.34 189.028C277.556 189.108 277.852 189.2 278.228 189.304C278.7 189.432 279.084 189.56 279.38 189.688C279.676 189.808 279.928 189.992 280.136 190.24C280.352 190.488 280.464 190.812 280.472 191.212C280.472 191.572 280.372 191.896 280.172 192.184C279.972 192.472 279.688 192.7 279.32 192.868C278.96 193.028 278.544 193.108 278.072 193.108Z" fill="#5A5555"/>
<rect x="30" y="218" width="268" height="40" rx="10" fill="#523680"/>
<path d="M144.648 242.084C144.088 242.084 143.584 241.988 143.136 241.796C142.688 241.596 142.336 241.316 142.08 240.956C141.824 240.596 141.696 240.176 141.696 239.696H143.16C143.192 240.056 143.332 240.352 143.58 240.584C143.836 240.816 144.192 240.932 144.648 240.932C145.12 240.932 145.488 240.82 145.752 240.596C146.016 240.364 146.148 240.068 146.148 239.708C146.148 239.428 146.064 239.2 145.896 239.024C145.736 238.848 145.532 238.712 145.284 238.616C145.044 238.52 144.708 238.416 144.276 238.304C143.732 238.16 143.288 238.016 142.944 237.872C142.608 237.72 142.32 237.488 142.08 237.176C141.84 236.864 141.72 236.448 141.72 235.928C141.72 235.448 141.84 235.028 142.08 234.668C142.32 234.308 142.656 234.032 143.088 233.84C143.52 233.648 144.02 233.552 144.588 233.552C145.396 233.552 146.056 233.756 146.568 234.164C147.088 234.564 147.376 235.116 147.432 235.82H145.92C145.896 235.516 145.752 235.256 145.488 235.04C145.224 234.824 144.876 234.716 144.444 234.716C144.052 234.716 143.732 234.816 143.484 235.016C143.236 235.216 143.112 235.504 143.112 235.88C143.112 236.136 143.188 236.348 143.34 236.516C143.5 236.676 143.7 236.804 143.94 236.9C144.18 236.996 144.508 237.1 144.924 237.212C145.476 237.364 145.924 237.516 146.268 237.668C146.62 237.82 146.916 238.056 147.156 238.376C147.404 238.688 147.528 239.108 147.528 239.636C147.528 240.06 147.412 240.46 147.18 240.836C146.956 241.212 146.624 241.516 146.184 241.748C145.752 241.972 145.24 242.084 144.648 242.084ZM149.838 234.512C149.59 234.512 149.382 234.428 149.214 234.26C149.046 234.092 148.962 233.884 148.962 233.636C148.962 233.388 149.046 233.18 149.214 233.012C149.382 232.844 149.59 232.76 149.838 232.76C150.078 232.76 150.282 232.844 150.45 233.012C150.618 233.18 150.702 233.388 150.702 233.636C150.702 233.884 150.618 234.092 150.45 234.26C150.282 234.428 150.078 234.512 149.838 234.512ZM150.51 235.388V242H149.142V235.388H150.51ZM154.97 235.28C155.482 235.28 155.934 235.384 156.326 235.592C156.726 235.792 157.038 236.044 157.262 236.348V235.388H158.642V242.108C158.642 242.716 158.514 243.256 158.258 243.728C158.002 244.208 157.63 244.584 157.142 244.856C156.662 245.128 156.086 245.264 155.414 245.264C154.518 245.264 153.774 245.052 153.182 244.628C152.59 244.212 152.254 243.644 152.174 242.924H153.53C153.634 243.268 153.854 243.544 154.19 243.752C154.534 243.968 154.942 244.076 155.414 244.076C155.966 244.076 156.41 243.908 156.746 243.572C157.09 243.236 157.262 242.748 157.262 242.108V241.004C157.03 241.316 156.714 241.58 156.314 241.796C155.922 242.004 155.474 242.108 154.97 242.108C154.394 242.108 153.866 241.964 153.386 241.676C152.914 241.38 152.538 240.972 152.258 240.452C151.986 239.924 151.85 239.328 151.85 238.664C151.85 238 151.986 237.412 152.258 236.9C152.538 236.388 152.914 235.992 153.386 235.712C153.866 235.424 154.394 235.28 154.97 235.28ZM157.262 238.688C157.262 238.232 157.166 237.836 156.974 237.5C156.79 237.164 156.546 236.908 156.242 236.732C155.938 236.556 155.61 236.468 155.258 236.468C154.906 236.468 154.578 236.556 154.274 236.732C153.97 236.9 153.722 237.152 153.53 237.488C153.346 237.816 153.254 238.208 153.254 238.664C153.254 239.12 153.346 239.52 153.53 239.864C153.722 240.208 153.97 240.472 154.274 240.656C154.586 240.832 154.914 240.92 155.258 240.92C155.61 240.92 155.938 240.832 156.242 240.656C156.546 240.48 156.79 240.224 156.974 239.888C157.166 239.544 157.262 239.144 157.262 238.688ZM163.775 235.28C164.295 235.28 164.759 235.388 165.167 235.604C165.583 235.82 165.907 236.14 166.139 236.564C166.371 236.988 166.487 237.5 166.487 238.1V242H165.131V238.304C165.131 237.712 164.983 237.26 164.687 236.948C164.391 236.628 163.987 236.468 163.475 236.468C162.963 236.468 162.555 236.628 162.251 236.948C161.955 237.26 161.807 237.712 161.807 238.304V242H160.439V235.388H161.807V236.144C162.031 235.872 162.315 235.66 162.659 235.508C163.011 235.356 163.383 235.28 163.775 235.28ZM172.705 233.66V238.976C172.705 239.608 172.869 240.084 173.197 240.404C173.533 240.724 173.997 240.884 174.589 240.884C175.189 240.884 175.653 240.724 175.981 240.404C176.317 240.084 176.485 239.608 176.485 238.976V233.66H177.853V238.952C177.853 239.632 177.705 240.208 177.409 240.68C177.113 241.152 176.717 241.504 176.221 241.736C175.725 241.968 175.177 242.084 174.577 242.084C173.977 242.084 173.429 241.968 172.933 241.736C172.445 241.504 172.057 241.152 171.769 240.68C171.481 240.208 171.337 239.632 171.337 238.952V233.66H172.705ZM181.002 236.36C181.234 236.056 181.55 235.8 181.95 235.592C182.35 235.384 182.802 235.28 183.306 235.28C183.882 235.28 184.406 235.424 184.878 235.712C185.358 235.992 185.734 236.388 186.006 236.9C186.278 237.412 186.414 238 186.414 238.664C186.414 239.328 186.278 239.924 186.006 240.452C185.734 240.972 185.358 241.38 184.878 241.676C184.406 241.964 183.882 242.108 183.306 242.108C182.802 242.108 182.354 242.008 181.962 241.808C181.57 241.6 181.25 241.344 181.002 241.04V245.144H179.634V235.388H181.002V236.36ZM185.022 238.664C185.022 238.208 184.926 237.816 184.734 237.488C184.55 237.152 184.302 236.9 183.99 236.732C183.686 236.556 183.358 236.468 183.006 236.468C182.662 236.468 182.334 236.556 182.022 236.732C181.718 236.908 181.47 237.164 181.278 237.5C181.094 237.836 181.002 238.232 181.002 238.688C181.002 239.144 181.094 239.544 181.278 239.888C181.47 240.224 181.718 240.48 182.022 240.656C182.334 240.832 182.662 240.92 183.006 240.92C183.358 240.92 183.686 240.832 183.99 240.656C184.302 240.472 184.55 240.208 184.734 239.864C184.926 239.52 185.022 239.12 185.022 238.664Z" fill="white"/>
<path d="M106.368 277.636V286H105.276V282.208H101.016V286H99.924V277.636H101.016V281.308H105.276V277.636H106.368ZM107.825 282.688C107.825 282.016 107.961 281.428 108.233 280.924C108.505 280.412 108.877 280.016 109.349 279.736C109.829 279.456 110.361 279.316 110.945 279.316C111.521 279.316 112.021 279.44 112.445 279.688C112.869 279.936 113.185 280.248 113.393 280.624V279.424H114.497V286H113.393V284.776C113.177 285.16 112.853 285.48 112.421 285.736C111.997 285.984 111.501 286.108 110.933 286.108C110.349 286.108 109.821 285.964 109.349 285.676C108.877 285.388 108.505 284.984 108.233 284.464C107.961 283.944 107.825 283.352 107.825 282.688ZM113.393 282.7C113.393 282.204 113.293 281.772 113.093 281.404C112.893 281.036 112.621 280.756 112.277 280.564C111.941 280.364 111.569 280.264 111.161 280.264C110.753 280.264 110.381 280.36 110.045 280.552C109.709 280.744 109.441 281.024 109.241 281.392C109.041 281.76 108.941 282.192 108.941 282.688C108.941 283.192 109.041 283.632 109.241 284.008C109.441 284.376 109.709 284.66 110.045 284.86C110.381 285.052 110.753 285.148 111.161 285.148C111.569 285.148 111.941 285.052 112.277 284.86C112.621 284.66 112.893 284.376 113.093 284.008C113.293 283.632 113.393 283.196 113.393 282.7ZM118.79 284.992L120.83 279.424H121.994L119.414 286H118.142L115.562 279.424H116.738L118.79 284.992ZM129.069 282.46C129.069 282.668 129.057 282.888 129.033 283.12H123.777C123.817 283.768 124.037 284.276 124.437 284.644C124.845 285.004 125.337 285.184 125.913 285.184C126.385 285.184 126.777 285.076 127.089 284.86C127.409 284.636 127.633 284.34 127.761 283.972H128.937C128.761 284.604 128.409 285.12 127.881 285.52C127.353 285.912 126.697 286.108 125.913 286.108C125.289 286.108 124.729 285.968 124.233 285.688C123.745 285.408 123.361 285.012 123.081 284.5C122.801 283.98 122.661 283.38 122.661 282.7C122.661 282.02 122.797 281.424 123.069 280.912C123.341 280.4 123.721 280.008 124.209 279.736C124.705 279.456 125.273 279.316 125.913 279.316C126.537 279.316 127.089 279.452 127.569 279.724C128.049 279.996 128.417 280.372 128.673 280.852C128.937 281.324 129.069 281.86 129.069 282.46ZM127.941 282.232C127.941 281.816 127.849 281.46 127.665 281.164C127.481 280.86 127.229 280.632 126.909 280.48C126.597 280.32 126.249 280.24 125.865 280.24C125.313 280.24 124.841 280.416 124.449 280.768C124.065 281.12 123.845 281.608 123.789 282.232H127.941ZM138.653 284.14H135.005L134.333 286H133.181L136.205 277.684H137.465L140.477 286H139.325L138.653 284.14ZM138.341 283.252L136.829 279.028L135.317 283.252H138.341ZM141.387 282.7C141.387 282.02 141.523 281.428 141.795 280.924C142.067 280.412 142.443 280.016 142.923 279.736C143.411 279.456 143.967 279.316 144.591 279.316C145.399 279.316 146.063 279.512 146.583 279.904C147.111 280.296 147.459 280.84 147.627 281.536H146.451C146.339 281.136 146.119 280.82 145.791 280.588C145.471 280.356 145.071 280.24 144.591 280.24C143.967 280.24 143.463 280.456 143.079 280.888C142.695 281.312 142.503 281.916 142.503 282.7C142.503 283.492 142.695 284.104 143.079 284.536C143.463 284.968 143.967 285.184 144.591 285.184C145.071 285.184 145.471 285.072 145.791 284.848C146.111 284.624 146.331 284.304 146.451 283.888H147.627C147.451 284.56 147.099 285.1 146.571 285.508C146.043 285.908 145.383 286.108 144.591 286.108C143.967 286.108 143.411 285.968 142.923 285.688C142.443 285.408 142.067 285.012 141.795 284.5C141.523 283.988 141.387 283.388 141.387 282.7ZM148.676 282.7C148.676 282.02 148.812 281.428 149.084 280.924C149.356 280.412 149.732 280.016 150.212 279.736C150.7 279.456 151.256 279.316 151.88 279.316C152.688 279.316 153.352 279.512 153.872 279.904C154.4 280.296 154.748 280.84 154.916 281.536H153.74C153.628 281.136 153.408 280.82 153.08 280.588C152.76 280.356 152.36 280.24 151.88 280.24C151.256 280.24 150.752 280.456 150.368 280.888C149.984 281.312 149.792 281.916 149.792 282.7C149.792 283.492 149.984 284.104 150.368 284.536C150.752 284.968 151.256 285.184 151.88 285.184C152.36 285.184 152.76 285.072 153.08 284.848C153.4 284.624 153.62 284.304 153.74 283.888H154.916C154.74 284.56 154.388 285.1 153.86 285.508C153.332 285.908 152.672 286.108 151.88 286.108C151.256 286.108 150.7 285.968 150.212 285.688C149.732 285.408 149.356 285.012 149.084 284.5C148.812 283.988 148.676 283.388 148.676 282.7ZM159.241 286.108C158.625 286.108 158.065 285.968 157.561 285.688C157.065 285.408 156.673 285.012 156.385 284.5C156.105 283.98 155.965 283.38 155.965 282.7C155.965 282.028 156.109 281.436 156.397 280.924C156.693 280.404 157.093 280.008 157.597 279.736C158.101 279.456 158.665 279.316 159.289 279.316C159.913 279.316 160.477 279.456 160.981 279.736C161.485 280.008 161.881 280.4 162.169 280.912C162.465 281.424 162.613 282.02 162.613 282.7C162.613 283.38 162.461 283.98 162.157 284.5C161.861 285.012 161.457 285.408 160.945 285.688C160.433 285.968 159.865 286.108 159.241 286.108ZM159.241 285.148C159.633 285.148 160.001 285.056 160.345 284.872C160.689 284.688 160.965 284.412 161.173 284.044C161.389 283.676 161.497 283.228 161.497 282.7C161.497 282.172 161.393 281.724 161.185 281.356C160.977 280.988 160.705 280.716 160.369 280.54C160.033 280.356 159.669 280.264 159.277 280.264C158.877 280.264 158.509 280.356 158.173 280.54C157.845 280.716 157.581 280.988 157.381 281.356C157.181 281.724 157.081 282.172 157.081 282.7C157.081 283.236 157.177 283.688 157.369 284.056C157.569 284.424 157.833 284.7 158.161 284.884C158.489 285.06 158.849 285.148 159.241 285.148ZM169.881 279.424V286H168.789V285.028C168.581 285.364 168.289 285.628 167.913 285.82C167.545 286.004 167.137 286.096 166.689 286.096C166.177 286.096 165.717 285.992 165.309 285.784C164.901 285.568 164.577 285.248 164.337 284.824C164.105 284.4 163.989 283.884 163.989 283.276V279.424H165.069V283.132C165.069 283.78 165.233 284.28 165.561 284.632C165.889 284.976 166.337 285.148 166.905 285.148C167.489 285.148 167.949 284.968 168.285 284.608C168.621 284.248 168.789 283.724 168.789 283.036V279.424H169.881ZM174.929 279.304C175.729 279.304 176.377 279.548 176.873 280.036C177.369 280.516 177.617 281.212 177.617 282.124V286H176.537V282.28C176.537 281.624 176.373 281.124 176.045 280.78C175.717 280.428 175.269 280.252 174.701 280.252C174.125 280.252 173.665 280.432 173.321 280.792C172.985 281.152 172.817 281.676 172.817 282.364V286H171.725V279.424H172.817V280.36C173.033 280.024 173.325 279.764 173.693 279.58C174.069 279.396 174.481 279.304 174.929 279.304ZM180.733 280.324V284.2C180.733 284.52 180.801 284.748 180.937 284.884C181.073 285.012 181.309 285.076 181.645 285.076H182.449V286H181.465C180.857 286 180.401 285.86 180.097 285.58C179.793 285.3 179.641 284.84 179.641 284.2V280.324H178.789V279.424H179.641V277.768H180.733V279.424H182.449V280.324H180.733ZM189.107 277.528C189.899 277.528 190.539 277.752 191.027 278.2C191.515 278.648 191.759 279.248 191.759 280C191.759 280.84 191.499 281.464 190.979 281.872C190.459 282.272 189.755 282.472 188.867 282.472L188.831 283.612H187.883L187.835 281.716H188.183C188.975 281.716 189.595 281.596 190.043 281.356C190.491 281.116 190.715 280.664 190.715 280C190.715 279.52 190.571 279.14 190.283 278.86C189.995 278.58 189.607 278.44 189.119 278.44C188.623 278.44 188.231 278.576 187.943 278.848C187.663 279.112 187.523 279.476 187.523 279.94H186.491C186.491 279.46 186.599 279.04 186.815 278.68C187.031 278.312 187.335 278.028 187.727 277.828C188.127 277.628 188.587 277.528 189.107 277.528ZM188.351 286.072C188.143 286.072 187.967 286 187.823 285.856C187.679 285.712 187.607 285.536 187.607 285.328C187.607 285.12 187.679 284.944 187.823 284.8C187.967 284.656 188.143 284.584 188.351 284.584C188.551 284.584 188.719 284.656 188.855 284.8C188.999 284.944 189.071 285.12 189.071 285.328C189.071 285.536 188.999 285.712 188.855 285.856C188.719 286 188.551 286.072 188.351 286.072Z" fill="#575757"/>
<path d="M198.508 284.668H201.268V286H196.828V277.624H198.508V284.668ZM205.288 286.108C204.648 286.108 204.072 285.968 203.56 285.688C203.048 285.4 202.644 284.996 202.348 284.476C202.06 283.956 201.916 283.356 201.916 282.676C201.916 281.996 202.064 281.396 202.36 280.876C202.664 280.356 203.076 279.956 203.596 279.676C204.116 279.388 204.696 279.244 205.336 279.244C205.976 279.244 206.556 279.388 207.076 279.676C207.596 279.956 208.004 280.356 208.3 280.876C208.604 281.396 208.756 281.996 208.756 282.676C208.756 283.356 208.6 283.956 208.288 284.476C207.984 284.996 207.568 285.4 207.04 285.688C206.52 285.968 205.936 286.108 205.288 286.108ZM205.288 284.644C205.592 284.644 205.876 284.572 206.14 284.428C206.412 284.276 206.628 284.052 206.788 283.756C206.948 283.46 207.028 283.1 207.028 282.676C207.028 282.044 206.86 281.56 206.524 281.224C206.196 280.88 205.792 280.708 205.312 280.708C204.832 280.708 204.428 280.88 204.1 281.224C203.78 281.56 203.62 282.044 203.62 282.676C203.62 283.308 203.776 283.796 204.088 284.14C204.408 284.476 204.808 284.644 205.288 284.644ZM212.592 279.244C213.088 279.244 213.524 279.344 213.9 279.544C214.276 279.736 214.572 279.988 214.788 280.3V279.352H216.48V286.048C216.48 286.664 216.356 287.212 216.108 287.692C215.86 288.18 215.488 288.564 214.992 288.844C214.496 289.132 213.896 289.276 213.192 289.276C212.248 289.276 211.472 289.056 210.864 288.616C210.264 288.176 209.924 287.576 209.844 286.816H211.512C211.6 287.12 211.788 287.36 212.076 287.536C212.372 287.72 212.728 287.812 213.144 287.812C213.632 287.812 214.028 287.664 214.332 287.368C214.636 287.08 214.788 286.64 214.788 286.048V285.016C214.572 285.328 214.272 285.588 213.888 285.796C213.512 286.004 213.08 286.108 212.592 286.108C212.032 286.108 211.52 285.964 211.056 285.676C210.592 285.388 210.224 284.984 209.952 284.464C209.688 283.936 209.556 283.332 209.556 282.652C209.556 281.98 209.688 281.384 209.952 280.864C210.224 280.344 210.588 279.944 211.044 279.664C211.508 279.384 212.024 279.244 212.592 279.244ZM214.788 282.676C214.788 282.268 214.708 281.92 214.548 281.632C214.388 281.336 214.172 281.112 213.9 280.96C213.628 280.8 213.336 280.72 213.024 280.72C212.712 280.72 212.424 280.796 212.16 280.948C211.896 281.1 211.68 281.324 211.512 281.62C211.352 281.908 211.272 282.252 211.272 282.652C211.272 283.052 211.352 283.404 211.512 283.708C211.68 284.004 211.896 284.232 212.16 284.392C212.432 284.552 212.72 284.632 213.024 284.632C213.336 284.632 213.628 284.556 213.9 284.404C214.172 284.244 214.388 284.02 214.548 283.732C214.708 283.436 214.788 283.084 214.788 282.676ZM218.973 278.56C218.677 278.56 218.429 278.468 218.229 278.284C218.037 278.092 217.941 277.856 217.941 277.576C217.941 277.296 218.037 277.064 218.229 276.88C218.429 276.688 218.677 276.592 218.973 276.592C219.269 276.592 219.513 276.688 219.705 276.88C219.905 277.064 220.005 277.296 220.005 277.576C220.005 277.856 219.905 278.092 219.705 278.284C219.513 278.468 219.269 278.56 218.973 278.56ZM219.801 279.352V286H218.121V279.352H219.801ZM225.145 279.256C225.937 279.256 226.577 279.508 227.065 280.012C227.553 280.508 227.797 281.204 227.797 282.1V286H226.117V282.328C226.117 281.8 225.985 281.396 225.721 281.116C225.457 280.828 225.097 280.684 224.641 280.684C224.177 280.684 223.809 280.828 223.537 281.116C223.273 281.396 223.141 281.8 223.141 282.328V286H221.461V279.352H223.141V280.18C223.365 279.892 223.649 279.668 223.993 279.508C224.345 279.34 224.729 279.256 225.145 279.256Z" fill="#523680"/>
</g>
<rect x="22" y="-40" width="284" height="358" rx="60" fill="url(#paint0_radial_2050_1773)"/>
</g>
<defs>
<radialGradient id="paint0_radial_2050_1773" cx="0" cy="0" r="1" gradientTransform="matrix(0 189.491 -261.033 11.3608 160.537 139)" gradientUnits="userSpaceOnUse">
<stop stop-color="#F2F2F2" stop-opacity="0"/>
<stop offset="1" stop-color="#F2F2F2"/>
</radialGradient>
<clipPath id="clip0_2050_1773">
<rect width="328" height="313" fill="white"/>
</clipPath>
<clipPath id="clip1_2050_1773">
<rect width="328" height="313" rx="60" fill="white"/>
</clipPath>
</defs>
</svg>
