<svg width="718" height="957" viewBox="0 0 718 957" fill="none" xmlns="http://www.w3.org/2000/svg">
<path d="M181.734 957C69.6788 957 -42.3761 956.975 -154.431 957C-209.943 957 -252.694 916.654 -255.271 861.159C-258.657 788.213 -250.853 717.202 -219.097 650.163C-174.972 557.043 -103.925 492.651 -9.09834 453.702C-0.729812 450.27 1.25803 446.299 1.11078 437.475C0.448172 396.982 -0.77887 356.39 1.35621 315.97C3.68762 271.604 41.211 239.053 85.8514 239.028C149.879 239.004 213.907 238.979 277.935 239.028C324.244 239.053 362.307 276.923 362.381 323.03C362.43 363.254 362.258 403.477 362.528 443.701C362.528 446.348 364.933 450.442 367.265 451.422C463 491.94 535.298 556.773 579.84 651.683C605.633 706.662 616.186 764.387 615.989 824.49C615.94 842.481 616.505 860.816 613.339 878.367C605.535 921.654 568.797 953.47 524.966 956.314C508.45 957.392 491.787 956.461 475.197 956.461C377.376 956.461 279.53 956.461 181.709 956.461V956.951L181.734 957ZM181.39 805.028C273.689 804.635 346.454 732.62 346.429 641.878C346.429 559.004 278.205 479.758 183.721 480.444C80.9677 481.204 20.6701 563.931 21.1364 644.476C21.6272 731.468 95.5206 805.395 181.39 805.028Z" fill="url(#paint0_linear_501_4845)" fill-opacity="0.06"/>
<path d="M182.758 168.666C106.252 169.451 49.454 174.89 -5.40721 192.288C-21.7332 197.458 -37.814 205.544 -51.8847 215.321C-78.7025 233.944 -85.934 257.615 -77.1827 289.127C-73.1624 303.608 -67.9411 317.772 -63.8228 332.229C-54.6548 364.378 -62.2294 387.509 -91.9888 402.407C-130.205 421.545 -170.04 437.497 -209.384 454.331C-225.93 461.412 -242.869 467.71 -259.931 473.444C-268.535 476.335 -277.752 477.903 -286.797 478.761C-308.664 480.844 -323.298 469.106 -334.109 451.758C-347.542 430.219 -352.91 406.009 -355.607 381.163C-362.373 318.531 -343.938 262.222 -312.414 209.024C-275.693 147.079 -221.886 104.785 -158.494 72.8323C-99.2448 42.9868 -36.0245 26.2508 28.7401 14.489C101.888 1.18348 175.674 -3.12918 249.827 2.26164C340.993 8.87765 429.732 26.9369 513.445 64.5501C563.673 87.118 609.979 115.959 646.676 158.252C692.1 210.592 715.338 271.386 717.397 340.315C718.206 367.759 719.359 395.448 712.152 422.329C709.431 432.473 705.557 442.642 700.262 451.684C687.932 472.758 668.37 481.187 645.009 474.203C624.148 467.955 603.974 459.305 583.652 451.317C546.244 436.615 508.984 421.618 471.625 406.769C435.051 392.238 421.25 371.533 437.037 325.245C441.988 310.739 448.901 296.894 453.681 282.364C463.634 252.004 454.932 228.014 428.432 210.004C406.861 195.326 381.906 189.862 357.025 184.839C293.216 171.925 228.5 169.181 182.783 168.666H182.758Z" fill="url(#paint1_linear_501_4845)" fill-opacity="0.06"/>
<path d="M182.404 770.973C111.099 769.452 54.295 711.637 55.0066 642.706C55.7182 574.437 111.589 514.536 183.14 515.003C256.555 515.493 313.727 574.511 311.96 646.387C310.267 714.803 250.372 772.421 182.404 770.973Z" fill="url(#paint2_linear_501_4845)" fill-opacity="0.06"/>
<defs>
<linearGradient id="paint0_linear_501_4845" x1="180" y1="239" x2="180" y2="957" gradientUnits="userSpaceOnUse">
<stop stop-color="#755C9E"/>
<stop offset="1" stop-color="#2A2138" stop-opacity="0"/>
</linearGradient>
<linearGradient id="paint1_linear_501_4845" x1="180.5" y1="0" x2="180.5" y2="479" gradientUnits="userSpaceOnUse">
<stop stop-color="#755C9E"/>
<stop offset="1" stop-color="#2A2138" stop-opacity="0"/>
</linearGradient>
<linearGradient id="paint2_linear_501_4845" x1="183.5" y1="515" x2="183.5" y2="771" gradientUnits="userSpaceOnUse">
<stop stop-color="#755C9E"/>
<stop offset="1" stop-color="#2A2138" stop-opacity="0"/>
</linearGradient>
</defs>
</svg>
